<svg width="60" height="59" viewBox="0 0 60 59" fill="none" xmlns="http://www.w3.org/2000/svg">
<path d="M48.0749 21.3957L37.6171 11.3631C35.424 9.25908 32.3998 8.12958 29.3063 8.28461L17.7635 8.81614C13.1464 9.01547 9.47577 12.5369 9.24491 16.9441L8.69086 28.0177C8.55234 30.9854 9.70662 33.8867 11.8998 35.9907L22.3575 46.0233C26.6514 50.1427 33.6233 50.1427 37.9403 46.0233L48.0749 36.3008C52.3919 32.2035 52.3919 25.5151 48.0749 21.3957ZM24.2275 29.5459C20.5799 29.5459 17.5788 26.6889 17.5788 23.1675C17.5788 19.6461 20.5799 16.7891 24.2275 16.7891C27.875 16.7891 30.8761 19.6461 30.8761 23.1675C30.8761 26.6889 27.875 29.5459 24.2275 29.5459ZM42.7652 32.0928L33.5309 40.9517C33.1847 41.2839 32.746 41.4389 32.3074 41.4389C31.8688 41.4389 31.4302 41.2839 31.0839 40.9517C30.4144 40.3094 30.4144 39.2463 31.0839 38.6041L40.3181 29.7452C40.9876 29.1029 42.0957 29.1029 42.7652 29.7452C43.4347 30.3875 43.4347 31.4505 42.7652 32.0928Z" fill="black"/>
</svg>
