<svg width="32" height="33" viewBox="0 0 32 33" fill="none" xmlns="http://www.w3.org/2000/svg">
<rect y="0.478516" width="32" height="32" fill="#0D0D0D"/>
<g clip-path="url(#clip0_2002_1081)">
<path d="M26.5915 11.047C26.6085 11.2839 26.6085 11.5208 26.6085 11.7577C26.6085 18.9827 21.1093 27.3076 11.0586 27.3076C7.96211 27.3076 5.08565 26.4108 2.66602 24.8542C3.10596 24.9049 3.52893 24.9218 3.98581 24.9218C6.54076 24.9218 8.89273 24.0589 10.7709 22.5868C8.3682 22.536 6.35466 20.9624 5.66091 18.7966C5.99935 18.8473 6.33773 18.8812 6.6931 18.8812C7.18378 18.8812 7.6745 18.8135 8.13133 18.6951C5.62711 18.1874 3.74888 15.9878 3.74888 13.3313V13.2636C4.47643 13.6697 5.32253 13.9235 6.21924 13.9573C4.74716 12.9759 3.78273 11.3008 3.78273 9.40572C3.78273 8.39051 4.05341 7.45988 4.52721 6.6477C7.21758 9.9641 11.2616 12.1299 15.7962 12.3668C15.7116 11.9607 15.6609 11.5377 15.6609 11.1147C15.6609 8.10285 18.0974 5.64941 21.1262 5.64941C22.6998 5.64941 24.1211 6.30931 25.1194 7.3753C26.3546 7.13842 27.539 6.68155 28.5881 6.05551C28.182 7.32457 27.319 8.39056 26.1854 9.06733C27.2852 8.94895 28.3512 8.64431 29.3326 8.22134C28.5882 9.30421 27.6575 10.2686 26.5915 11.047Z" fill="white"/>
</g>
<defs>
<clipPath id="clip0_2002_1081">
<rect width="26.6667" height="26.6667" fill="white" transform="translate(2.66602 3.14551)"/>
</clipPath>
</defs>
</svg>
