<svg width="32" height="33" viewBox="0 0 32 33" fill="none" xmlns="http://www.w3.org/2000/svg">
<rect y="0.478516" width="32" height="32" fill="#0D0D0D"/>
<mask id="mask0_2002_1082" style="mask-type:alpha" maskUnits="userSpaceOnUse" x="2" y="3" width="28" height="27">
<rect x="2.66602" y="3.14551" width="26.6667" height="26.6667" fill="#D9D9D9"/>
</mask>
<g mask="url(#mask0_2002_1082)">
<path d="M14.8887 22.034H10.4442C8.90719 22.034 7.59701 21.4923 6.51367 20.409C5.43034 19.3256 4.88867 18.0154 4.88867 16.4784C4.88867 14.9414 5.43034 13.6312 6.51367 12.5479C7.59701 11.4645 8.90719 10.9229 10.4442 10.9229H14.8887V13.1451H10.4442C9.5183 13.1451 8.73126 13.4691 8.08312 14.1173C7.43497 14.7654 7.11089 15.5525 7.11089 16.4784C7.11089 17.4043 7.43497 18.1914 8.08312 18.8395C8.73126 19.4877 9.5183 19.8117 10.4442 19.8117H14.8887V22.034ZM11.5553 17.5895V15.3673H20.4442V17.5895H11.5553ZM17.1109 22.034V19.8117H21.5553C22.4813 19.8117 23.2683 19.4877 23.9164 18.8395C24.5646 18.1914 24.8887 17.4043 24.8887 16.4784C24.8887 15.5525 24.5646 14.7654 23.9164 14.1173C23.2683 13.4691 22.4813 13.1451 21.5553 13.1451H17.1109V10.9229H21.5553C23.0924 10.9229 24.4026 11.4645 25.4859 12.5479C26.5692 13.6312 27.1109 14.9414 27.1109 16.4784C27.1109 18.0154 26.5692 19.3256 25.4859 20.409C24.4026 21.4923 23.0924 22.034 21.5553 22.034H17.1109Z" fill="white"/>
</g>
</svg>
