<svg width="32" height="33" viewBox="0 0 32 33" fill="none" xmlns="http://www.w3.org/2000/svg">
<rect y="0.478516" width="32" height="32" fill="#0D0D0D"/>
<path d="M16.0011 11.0096C12.9742 11.0096 10.5327 13.4516 10.5327 16.4792C10.5327 19.5067 12.9742 21.9488 16.0011 21.9488C19.028 21.9488 21.4695 19.5067 21.4695 16.4792C21.4695 13.4516 19.028 11.0096 16.0011 11.0096ZM16.0011 20.0351C14.045 20.0351 12.4459 18.4404 12.4459 16.4792C12.4459 14.5179 14.0403 12.9232 16.0011 12.9232C17.9619 12.9232 19.5562 14.5179 19.5562 16.4792C19.5562 18.4404 17.9571 20.0351 16.0011 20.0351ZM22.9686 10.7858C22.9686 11.4951 22.3975 12.0616 21.6931 12.0616C20.984 12.0616 20.4177 11.4904 20.4177 10.7858C20.4177 10.0813 20.9888 9.51007 21.6931 9.51007C22.3975 9.51007 22.9686 10.0813 22.9686 10.7858ZM26.5904 12.0806C26.5095 10.3717 26.1192 8.85791 24.8676 7.61071C23.6206 6.36351 22.1072 5.97316 20.3986 5.88747C18.6377 5.78751 13.3597 5.78751 11.5988 5.88747C9.89496 5.9684 8.38152 6.35875 7.12984 7.60595C5.87816 8.85315 5.49266 10.3669 5.40699 12.0759C5.30705 13.8372 5.30705 19.1164 5.40699 20.8777C5.4879 22.5866 5.87816 24.1004 7.12984 25.3476C8.38152 26.5948 9.8902 26.9852 11.5988 27.0709C13.3597 27.1708 18.6377 27.1708 20.3986 27.0709C22.1072 26.9899 23.6206 26.5996 24.8676 25.3476C26.1145 24.1004 26.5047 22.5866 26.5904 20.8777C26.6904 19.1164 26.6904 13.842 26.5904 12.0806ZM24.3155 22.7675C23.9443 23.7006 23.2256 24.4194 22.288 24.7954C20.8841 25.3524 17.5526 25.2239 16.0011 25.2239C14.4496 25.2239 11.1133 25.3476 9.71411 24.7954C8.7813 24.4241 8.06265 23.7053 7.68667 22.7675C7.12984 21.3632 7.25834 18.031 7.25834 16.4792C7.25834 14.9273 7.1346 11.5903 7.68667 10.1908C8.05789 9.25778 8.77654 8.53897 9.71411 8.1629C11.1181 7.60595 14.4496 7.73448 16.0011 7.73448C17.5526 7.73448 20.8888 7.61071 22.288 8.1629C23.2209 8.53421 23.9395 9.25302 24.3155 10.1908C24.8723 11.5951 24.7438 14.9273 24.7438 16.4792C24.7438 18.031 24.8723 21.368 24.3155 22.7675Z" fill="white"/>
</svg>
