<svg width="239" height="89" viewBox="0 0 239 89" fill="none" xmlns="http://www.w3.org/2000/svg">
<g clip-path="url(#clip0_2002_1136)">
<path d="M53.3723 48.468V29.932C53.3723 29.652 53.6243 29.4 53.9043 29.4H55.7523C56.0603 29.4 56.2843 29.652 56.2843 29.932V37.744H66.5323V29.932C66.5323 29.652 66.7563 29.4 67.0643 29.4H68.9123C69.1923 29.4 69.4443 29.652 69.4443 29.932V48.468C69.4443 48.748 69.1923 49 68.9123 49H67.0643C66.7563 49 66.5323 48.748 66.5323 48.468V40.376H56.2843V48.468C56.2843 48.748 56.0603 49 55.7523 49H53.9043C53.6243 49 53.3723 48.748 53.3723 48.468ZM73.8284 49C73.4084 49 73.1844 48.636 73.3524 48.272L81.9484 29.428C82.0324 29.26 82.2844 29.12 82.4244 29.12H82.7044C82.8444 29.12 83.0964 29.26 83.1804 29.428L91.7204 48.272C91.8884 48.636 91.6644 49 91.2444 49H89.4804C89.1444 49 88.9484 48.832 88.8364 48.58L87.1004 44.744H77.9444C77.3844 46.032 76.7964 47.292 76.2364 48.58C76.1524 48.776 75.9284 49 75.5924 49H73.8284ZM79.0364 42.336H86.0364L82.5924 34.664H82.4524L79.0364 42.336ZM95.6435 48.468V29.932C95.6435 29.652 95.8675 29.4 96.1755 29.4H103.792C107.152 29.4 109.896 32.06 109.896 35.392C109.896 37.968 108.188 40.096 105.752 41.076L109.588 48.188C109.784 48.552 109.588 49 109.112 49H106.928C106.704 49 106.536 48.86 106.48 48.748L102.756 41.328H98.5275V48.468C98.5275 48.748 98.2755 49 97.9955 49H96.1755C95.8675 49 95.6435 48.748 95.6435 48.468ZM98.5835 38.92H103.568C105.388 38.92 106.984 37.38 106.984 35.448C106.984 33.628 105.388 32.116 103.568 32.116H98.5835V38.92ZM114.041 48.356L117.513 29.54C117.569 29.316 117.793 29.12 118.017 29.12H118.465C118.633 29.12 118.885 29.26 118.941 29.428L124.793 43.736H124.905L130.729 29.428C130.785 29.26 131.009 29.12 131.205 29.12H131.653C131.877 29.12 132.101 29.316 132.157 29.54L135.601 48.356C135.685 48.748 135.489 49 135.097 49H133.277C133.025 49 132.801 48.804 132.745 48.608L130.673 36.092C130.645 36.092 130.589 36.092 130.589 36.092L125.549 48.972C125.493 49.14 125.325 49.28 125.073 49.28H124.569C124.345 49.28 124.149 49.14 124.093 48.972L119.025 36.092C118.997 36.092 118.941 36.092 118.913 36.092L116.897 48.608C116.869 48.804 116.617 49 116.393 49H114.573C114.181 49 113.985 48.748 114.041 48.356ZM164.054 48.468V29.624C164.054 29.344 164.306 29.12 164.586 29.12H165.286L177.438 43.176H177.466V29.932C177.466 29.652 177.69 29.4 177.998 29.4H179.79C180.07 29.4 180.322 29.652 180.322 29.932V48.776C180.322 49.056 180.07 49.28 179.79 49.28H179.062L166.91 34.832H166.882V48.468C166.882 48.748 166.658 49 166.35 49H164.586C164.306 49 164.054 48.748 164.054 48.468ZM186.885 48.468V29.932C186.885 29.652 187.137 29.4 187.417 29.4H189.265C189.545 29.4 189.797 29.652 189.797 29.932V48.468C189.797 48.748 189.545 49 189.265 49H187.417C187.137 49 186.885 48.748 186.885 48.468ZM194.385 48.468V47.964L203.625 32.2V32.088H195.729C195.449 32.088 195.197 31.836 195.197 31.556V29.932C195.197 29.652 195.449 29.4 195.729 29.4H207.237C207.517 29.4 207.769 29.652 207.769 29.932V30.296L198.501 46.312V46.34H206.677C206.985 46.34 207.209 46.592 207.209 46.872V48.468C207.209 48.748 206.985 49 206.677 49H194.917C194.637 49 194.385 48.748 194.385 48.468ZM212.449 48.468V29.932C212.449 29.652 212.673 29.4 212.981 29.4H224.181C224.489 29.4 224.713 29.652 224.713 29.932V31.5C224.713 31.78 224.489 32.032 224.181 32.032H215.333V37.744H222.809C223.089 37.744 223.341 37.996 223.341 38.276V39.844C223.341 40.152 223.089 40.376 222.809 40.376H215.333V46.396H224.181C224.489 46.396 224.713 46.648 224.713 46.928V48.468C224.713 48.748 224.489 49 224.181 49H212.981C212.673 49 212.449 48.748 212.449 48.468Z" fill="white"/>
<path d="M139.105 39.228C139.105 33.628 143.557 29.12 149.157 29.12C154.757 29.12 159.237 33.628 159.237 39.228C159.237 44.828 154.757 49.28 149.157 49.28C143.557 49.28 139.105 44.828 139.105 39.228ZM143.585 39.228C143.585 42.28 146.105 44.8 149.157 44.8C152.237 44.8 154.757 42.28 154.757 39.228C154.757 36.148 152.237 33.6 149.157 33.6C146.105 33.6 143.585 36.148 143.585 39.228Z" fill="#77A849"/>
<path d="M53.3723 80.468V61.932C53.3723 61.652 53.5963 61.4 53.8763 61.4H60.3163C65.7203 61.4 70.1443 65.796 70.1443 71.172C70.1443 76.604 65.7203 81 60.3163 81H53.8763C53.5963 81 53.3723 80.748 53.3723 80.468ZM56.2283 78.34H59.9243C64.0403 78.34 67.0363 75.316 67.0363 71.172C67.0363 67.056 64.0403 64.06 59.9243 64.06H56.2283V78.34ZM75.3008 80.468V61.932C75.3008 61.652 75.5248 61.4 75.8328 61.4H87.0328C87.3408 61.4 87.5648 61.652 87.5648 61.932V63.5C87.5648 63.78 87.3408 64.032 87.0328 64.032H78.1848V69.744H85.6608C85.9408 69.744 86.1928 69.996 86.1928 70.276V71.844C86.1928 72.152 85.9408 72.376 85.6608 72.376H78.1848V78.396H87.0328C87.3408 78.396 87.5648 78.648 87.5648 78.928V80.468C87.5648 80.748 87.3408 81 87.0328 81H75.8328C75.5248 81 75.3008 80.748 75.3008 80.468ZM91.8171 79.068C91.5651 78.844 91.3691 78.648 91.6491 78.172C91.9011 77.808 92.1251 77.388 92.3771 77.024C92.6291 76.66 93.0211 76.548 93.3291 76.8C93.4971 76.94 95.6531 78.732 97.8091 78.732C99.7411 78.732 100.973 77.556 100.973 76.128C100.973 74.448 99.5171 73.384 96.7451 72.236C93.8891 71.032 91.6491 69.548 91.6491 66.3C91.6491 64.116 93.3291 61.12 97.7811 61.12C100.581 61.12 102.681 62.576 102.961 62.772C103.185 62.912 103.409 63.304 103.129 63.724C102.905 64.06 102.653 64.452 102.429 64.788C102.205 65.152 101.841 65.32 101.449 65.068C101.253 64.956 99.2931 63.668 97.6691 63.668C95.3171 63.668 94.5051 65.152 94.5051 66.188C94.5051 67.784 95.7371 68.764 98.0611 69.716C101.309 71.032 104.081 72.572 104.081 75.988C104.081 78.9 101.477 81.28 97.8371 81.28C94.4211 81.28 92.2651 79.488 91.8171 79.068ZM109.068 80.468V61.932C109.068 61.652 109.32 61.4 109.6 61.4H111.448C111.728 61.4 111.98 61.652 111.98 61.932V80.468C111.98 80.748 111.728 81 111.448 81H109.6C109.32 81 109.068 80.748 109.068 80.468ZM117.1 71.228C117.1 65.628 121.608 61.12 127.18 61.12C129.868 61.12 132.08 62.1 133.984 63.724C134.208 63.948 134.236 64.284 134.012 64.508C133.592 64.956 133.172 65.376 132.752 65.824C132.528 66.076 132.304 66.048 132.024 65.796C130.708 64.648 128.972 63.892 127.264 63.892C123.288 63.892 120.236 67.252 120.236 71.172C120.236 75.064 123.288 78.424 127.264 78.424C129.588 78.424 131.184 77.584 131.464 77.472V74.336H128.72C128.412 74.336 128.188 74.112 128.188 73.832V72.208C128.188 71.9 128.412 71.676 128.72 71.676H133.816C134.096 71.676 134.32 71.928 134.32 72.208C134.32 74.448 134.348 76.744 134.348 78.984C134.348 79.124 134.236 79.348 134.124 79.432C134.124 79.432 131.24 81.28 127.18 81.28C121.608 81.28 117.1 76.828 117.1 71.228ZM139.855 80.468V61.624C139.855 61.344 140.107 61.12 140.387 61.12H141.087L153.239 75.176H153.267V61.932C153.267 61.652 153.491 61.4 153.799 61.4H155.591C155.871 61.4 156.123 61.652 156.123 61.932V80.776C156.123 81.056 155.871 81.28 155.591 81.28H154.863L142.711 66.832H142.683V80.468C142.683 80.748 142.459 81 142.151 81H140.387C140.107 81 139.855 80.748 139.855 80.468Z" fill="white"/>
</g>
<g clip-path="url(#clip1_2002_1136)">
<path d="M7.64693 20.5898H0V80.0021H7.64693V20.5898Z" fill="#77A849"/>
<path d="M13.6135 0H17.1725L17.0854 43.0975C17.0854 43.0975 34.6562 44.2751 34.6562 62.3835V80.0022H31.5891V63.3609C31.5891 63.3609 32.5556 46.0535 13.6113 46.0993V0H13.6135Z" fill="white"/>
</g>
<defs>
<clipPath id="clip0_2002_1136">
<rect width="188" height="68" fill="white" transform="translate(50.6562 21)"/>
</clipPath>
<clipPath id="clip1_2002_1136">
<rect width="34.6561" height="80" fill="white"/>
</clipPath>
</defs>
</svg>
