<svg width="240" height="89" viewBox="0 0 240 89" fill="none" xmlns="http://www.w3.org/2000/svg">
<g clip-path="url(#clip0_2002_1137)">
<path d="M55.4396 48.68V51.704H53.0876V46.72H63.8956C63.6156 46.048 63.2796 45.348 62.9716 44.732L65.8556 44.34C66.2476 45.04 66.7516 45.964 67.0596 46.72H76.9716V51.704H74.5356V48.68H55.4396ZM66.5836 49.212H69.0196V50.64H73.5836V52.488H69.0196V53.832H66.5836V49.212ZM63.7276 53.832H61.3476V52.432H56.4476V50.584H61.3476V49.184H63.7276V53.832ZM58.7996 61.392V62.68H71.3436V61.392H58.7996ZM58.7996 58.648V59.908H71.3436V58.648H58.7996ZM58.7996 55.96V57.192H71.3436V55.96H58.7996ZM70.2796 67.972H74.0316C75.0956 67.972 75.2636 67.412 75.4036 64.444C75.9356 64.836 76.8876 65.172 77.5036 65.312C77.2796 68.868 76.6636 69.848 74.2836 69.848H69.9156C67.1156 69.848 66.3316 69.232 66.3316 67.216V64.304H63.1396C62.1596 67.468 59.8636 69.232 53.5916 70.212C53.3676 69.568 52.7796 68.588 52.3036 68.084C57.5956 67.44 59.4996 66.32 60.2836 64.304H56.2796V54.336H73.9476V64.304H68.9356V67.16C68.9356 67.86 69.1316 67.972 70.2796 67.972ZM69.9156 65.004L71.8756 64.416C72.7156 65.116 73.7516 66.18 74.2836 66.908L72.2396 67.552C71.7916 66.88 70.7556 65.788 69.9156 65.004ZM85.6236 51.088V55.092H83.2436V48.82H87.7796C87.2756 47.84 86.4916 46.608 85.7356 45.684L88.0596 44.76C89.0116 45.852 90.0196 47.336 90.4676 48.344L89.4316 48.82H93.8836V44.48H96.5156V48.82H101.304L99.9876 48.344C100.8 47.336 101.808 45.768 102.396 44.648L105.112 45.516C104.244 46.748 103.292 47.952 102.452 48.82H107.352V55.092H104.86V51.088H85.6236ZM89.9916 55.036V57.696H100.464V55.036H89.9916ZM96.5156 67.188H107.464V69.456H83.1316V67.188H93.8836V64.36H85.5956V62.092H93.8836V59.74H87.5836V52.992H103.04V59.74H96.5156V62.092H105.336V64.36H96.5156V67.188ZM116.172 49.94V54.084H113.596V47.588H124.18C123.844 46.748 123.424 45.824 123.032 45.068L125.776 44.312C126.308 45.32 126.98 46.58 127.4 47.588H137.34V53.44H134.652V49.94H129.864V53.972C129.864 54.756 130.032 55.036 130.816 55.036H135.324C136.024 55.036 137.172 54.98 137.732 54.84C137.788 55.54 137.872 56.548 137.984 57.164C137.452 57.304 136.388 57.332 135.38 57.332H130.788C128.016 57.332 127.288 56.464 127.288 53.944V49.94H124.264C123.872 54.756 122.36 57.136 114.996 58.256C114.8 57.612 114.24 56.632 113.764 56.1C120.204 55.316 121.296 53.692 121.604 49.94H116.172ZM126.98 61.812V67.16H137.564V69.624H113.596V67.16H124.264V61.812H116.34V59.404H134.904V61.812H126.98ZM152.124 47.588H146.832V49.52H152.124V47.588ZM146.832 53.44H152.124V51.368H146.832V53.44ZM154.588 55.372H146.832V70.212H144.256V45.628H154.588V55.372ZM159.292 53.496H164.752V51.368H159.292V53.496ZM164.752 47.588H159.292V49.52H164.752V47.588ZM152.824 65.676H158.508V63.352H152.824V65.676ZM158.508 59.264H152.824V61.448H158.508V59.264ZM167.384 45.628V66.964C167.384 68.448 167.076 69.288 166.068 69.736C165.088 70.156 163.548 70.184 161.196 70.184C161.084 69.484 160.72 68.364 160.384 67.636H152.824V69.036H150.444V57.304H160.944V67.552C162.316 67.608 163.66 67.58 164.108 67.58C164.612 67.552 164.752 67.412 164.752 66.936V55.428H156.8V45.628H167.384ZM182.84 52.908V54.14C185.752 52.544 186.2 50.388 186.2 48.512V45.488H195.048V51.788C195.048 52.572 195.076 52.852 195.468 52.852H196.896C197.232 52.852 197.82 52.796 198.156 52.684C198.212 53.356 198.268 54.28 198.352 54.868C198.016 55.008 197.428 55.036 196.896 55.036H195.244C193.088 55.036 192.64 54.112 192.64 51.704V47.896H188.58V48.568C188.58 51.144 187.852 54.168 184.436 56.128C184.128 55.624 183.344 54.7 182.84 54.28V54.952H174.524V52.908H182.84ZM174.524 58.648V56.632H182.896V58.648H174.524ZM184.016 49.184V51.256H173.32V49.184H178.304C177.856 48.148 176.988 46.552 176.26 45.404L178.304 44.368C179.06 45.544 179.956 47.028 180.376 48.036L178.36 49.184H184.016ZM194.18 59.096H186.984C187.852 60.916 189.084 62.484 190.652 63.828C192.108 62.512 193.312 60.944 194.18 59.096ZM180.6 66.488V62.484H176.764V66.488H180.6ZM195.86 56.576L197.456 57.276C196.504 60.664 194.852 63.296 192.752 65.368C194.544 66.46 196.644 67.272 198.968 67.776C198.436 68.308 197.708 69.4 197.344 70.128C194.796 69.484 192.584 68.448 190.652 67.076C188.664 68.476 186.368 69.484 183.932 70.212C183.708 69.624 183.288 68.812 182.868 68.196V68.588H176.764V69.848H174.524V60.384H182.868V67.832C184.94 67.3 186.9 66.488 188.636 65.396C187.012 63.744 185.668 61.84 184.66 59.628L186.172 59.096H183.624V56.66H195.412L195.86 56.576ZM215.628 49.184V51.256H204.064V49.184H209.272C208.824 48.148 207.984 46.552 207.228 45.404L209.272 44.368C210.056 45.544 210.924 47.028 211.372 48.036L209.328 49.184H215.628ZM214.396 56.604V58.62H205.268V56.604H214.396ZM212.212 62.484H207.676V66.488H212.212V62.484ZM214.452 60.384V68.588H207.676V69.848H205.436V60.384H214.452ZM205.268 54.952V52.908H214.452V54.952H205.268ZM228.928 53.972V56.52H223.44V70.212H220.752V56.52H215.572V53.972H220.752V45.04H223.44V53.972H228.928Z" fill="white"/>
</g>
<g clip-path="url(#clip1_2002_1137)">
<path d="M8.00631 20.5898H0.359375V80.0021H8.00631V20.5898Z" fill="#77A849"/>
<path d="M13.9729 0H17.5319L17.4448 43.0975C17.4448 43.0975 35.0155 44.2751 35.0155 62.3835V80.0022H31.9485V63.3609C31.9485 63.3609 32.915 46.0535 13.9707 46.0993V0H13.9729Z" fill="white"/>
</g>
<defs>
<clipPath id="clip0_2002_1137">
<rect width="188" height="68" fill="white" transform="translate(51.0156 21)"/>
</clipPath>
<clipPath id="clip1_2002_1137">
<rect width="34.6561" height="80" fill="white" transform="translate(0.359375)"/>
</clipPath>
</defs>
</svg>
