<svg width="375" height="677" viewBox="0 0 375 677" fill="none" xmlns="http://www.w3.org/2000/svg">
<path d="M134.5 84.43V67.6H129.91C129.58 67.6 129.34 67.33 129.34 67.03V64.57C129.34 64.27 129.58 64 129.91 64H143.02C143.35 64 143.59 64.27 143.59 64.57V67.03C143.59 67.33 143.35 67.6 143.02 67.6H138.43V84.43C138.43 84.73 138.16 85 137.86 85H135.07C134.77 85 134.5 84.73 134.5 84.43ZM146.709 84.43V64.57C146.709 64.27 146.979 64 147.279 64H150.069C150.399 64 150.639 64.27 150.639 64.57V72.52H160.419V64.57C160.419 64.27 160.659 64 160.989 64H163.749C164.049 64 164.319 64.27 164.319 64.57V84.43C164.319 84.73 164.049 85 163.749 85H160.989C160.659 85 160.419 84.73 160.419 84.43V76.15H150.639V84.43C150.639 84.73 150.399 85 150.069 85H147.279C146.979 85 146.709 84.73 146.709 84.43ZM167.546 85C167.096 85 166.856 84.61 167.036 84.22L176.366 64.03C176.456 63.85 176.606 63.7 176.876 63.7H177.176C177.476 63.7 177.596 63.85 177.686 64.03L186.926 84.22C187.106 84.61 186.866 85 186.416 85H183.806C183.356 85 183.146 84.82 182.936 84.4L181.466 81.16H172.496L171.026 84.4C170.906 84.7 170.636 85 170.156 85H167.546ZM173.966 77.83H179.996L176.996 71.23H176.906L173.966 77.83ZM189.659 84.43V64.24C189.659 63.94 189.929 63.7 190.229 63.7H190.979L203.459 76.96H203.489V64.57C203.489 64.27 203.729 64 204.059 64H206.819C207.119 64 207.389 64.27 207.389 64.57V84.76C207.389 85.06 207.119 85.3 206.819 85.3H206.099L193.559 71.53H193.529V84.43C193.529 84.73 193.289 85 192.959 85H190.229C189.929 85 189.659 84.73 189.659 84.43ZM212.862 84.28V64.72C212.862 64.33 213.162 64 213.582 64H216.222C216.612 64 216.942 64.33 216.942 64.72V72.82L224.502 64.3C224.622 64.15 224.802 64 225.072 64H228.072C228.642 64 228.942 64.63 228.552 65.08L220.722 73.9L229.122 83.95C229.422 84.34 229.182 85 228.582 85H225.312C225.012 85 224.832 84.88 224.772 84.79L216.942 75.13V84.28C216.942 84.67 216.612 85 216.222 85H213.582C213.162 85 212.862 84.67 212.862 84.28ZM231.44 82.96C231.17 82.69 231.02 82.54 231.29 82.06L232.37 80.2C232.61 79.78 233.12 79.78 233.39 79.99C233.54 80.08 235.97 81.85 237.92 81.85C239.48 81.85 240.65 80.83 240.65 79.54C240.65 78.01 239.36 76.96 236.84 75.94C234.02 74.8 231.2 73 231.2 69.46C231.2 66.79 233.18 63.7 237.95 63.7C241.01 63.7 243.35 65.26 243.95 65.71C244.25 65.89 244.34 66.4 244.13 66.7L242.99 68.41C242.75 68.77 242.3 69.01 241.94 68.77C241.7 68.62 239.42 67.12 237.77 67.12C236.06 67.12 235.13 68.26 235.13 69.22C235.13 70.63 236.24 71.59 238.67 72.58C241.58 73.75 244.94 75.49 244.94 79.36C244.94 82.45 242.27 85.3 238.04 85.3C234.26 85.3 232.04 83.53 231.44 82.96Z" fill="black"/>
<path d="M72.9462 109.7L74.0662 108.9C74.7662 109.36 75.7062 110.04 76.1862 110.48L75.0262 111.4C74.5662 110.94 73.6262 110.2 72.9462 109.7ZM61.1262 111.18H76.8862V112.74H61.1262V111.18ZM62.8062 113.96H70.0662V115.26H62.8062V113.96ZM74.6862 113.78L76.3262 114.22C75.0262 117.46 72.8462 120.24 70.4462 122C70.1662 121.68 69.5262 121.06 69.1462 120.76C71.5462 119.2 73.5662 116.66 74.6862 113.78ZM70.8262 109.12H72.6062C72.5662 117.62 74.4062 125.82 75.5462 125.82C75.8262 125.82 76.0262 124.7 76.0862 122.28C76.4662 122.68 77.0462 123.08 77.5262 123.28C77.2662 126.66 76.7062 127.6 75.2862 127.6C72.5062 127.6 70.9662 117.96 70.8262 109.12ZM60.2262 111.18H61.9662V115.22C61.9662 118.66 61.6662 124.08 59.9462 127.72C59.6262 127.42 58.8262 126.88 58.4462 126.72C60.0662 123.28 60.2262 118.44 60.2262 115.22V111.18ZM63.9862 121.98H65.5262V125.58C65.5262 126.04 65.6262 126.1 66.1462 126.1C66.3662 126.1 67.5262 126.1 67.8462 126.1C68.3462 126.1 68.4462 125.82 68.4862 123.88C68.8062 124.12 69.4262 124.36 69.8262 124.44C69.6662 126.82 69.2862 127.44 68.0262 127.44C67.6862 127.44 66.2262 127.44 65.9262 127.44C64.3662 127.44 63.9862 127.02 63.9862 125.58V121.98ZM65.5262 121.36L66.6862 120.82C67.2862 121.74 68.0662 122.98 68.4262 123.74L67.2062 124.38C66.8662 123.6 66.1262 122.3 65.5262 121.36ZM69.2862 122.56L70.5662 122.08C71.2062 123.42 72.0062 125.2 72.3662 126.24L70.9862 126.84C70.6462 125.76 69.9062 123.92 69.2862 122.56ZM62.3862 122.26L63.6262 122.66C63.4262 124.04 63.0662 125.84 62.5262 126.98L61.2662 126.36C61.7862 125.3 62.1862 123.6 62.3862 122.26ZM64.7062 117.72V119.66H68.2262V117.72H64.7062ZM63.1662 116.44H69.7262V120.96H63.1662V116.44ZM86.6062 114.26H90.3262V115.62H86.6062V114.26ZM86.6062 117.02H90.3262V118.38H86.6062V117.02ZM87.8062 109.1L89.6662 109.42C89.2262 110.5 88.7262 111.68 88.3462 112.46L87.0262 112.14C87.3262 111.28 87.6662 110 87.8062 109.1ZM85.7462 111.36H90.3662V112.86H87.3062V120.5H85.7462V111.36ZM89.4462 111.36H91.0262V125.72C91.0262 126.54 90.8662 127 90.3262 127.28C89.8062 127.54 88.9662 127.58 87.7662 127.58C87.7062 127.14 87.4662 126.44 87.2262 126.02C88.0662 126.06 88.8662 126.04 89.1062 126.02C89.3662 126.02 89.4462 125.94 89.4462 125.68V111.36ZM91.5062 113.42H97.7862V115.16H91.5062V113.42ZM95.0062 109.26H96.7262V125.52C96.7262 126.46 96.5262 126.94 95.9462 127.22C95.3662 127.5 94.4662 127.58 93.1462 127.58C93.0662 127.12 92.7862 126.34 92.5262 125.88C93.4462 125.92 94.3462 125.9 94.6262 125.9C94.9262 125.88 95.0062 125.8 95.0062 125.5V109.26ZM91.8062 117L93.2062 116.6C93.8862 118.08 94.5062 120.02 94.7062 121.22L93.2062 121.7C93.0462 120.5 92.4462 118.52 91.8062 117ZM80.2462 115.22H84.5062V116.68H80.2462V115.22ZM80.2462 117.92H84.5062V119.38H80.2462V117.92ZM79.5662 112.5H85.0462V114.04H79.5662V112.5ZM80.9662 120.64H84.4862V126.56H80.9662V125.06H83.0862V122.14H80.9662V120.64ZM80.2062 120.64H81.5862V127.46H80.2062V120.64ZM81.0462 109.72L82.4062 109.22C82.8662 110.06 83.3462 111.18 83.5062 111.88L82.0662 112.46C81.9062 111.74 81.4662 110.58 81.0462 109.72ZM91.1862 118.76L92.5662 119.28C90.9462 121.94 88.2062 124.34 85.5462 125.86C85.4062 125.52 85.0062 124.74 84.7462 124.4C87.2062 123.14 89.7662 121.08 91.1862 118.76ZM85.0062 120.04C86.4262 119.92 88.4462 119.74 90.4862 119.54L90.5262 120.94C88.6262 121.16 86.7262 121.36 85.1662 121.52L85.0062 120.04ZM109.346 125.24H116.226V126.9H109.346V125.24ZM108.486 120.14H117.246V127.64H115.386V121.78H110.266V127.72H108.486V120.14ZM113.346 112.4H115.066C114.586 115.44 113.546 118.24 109.886 119.8C109.726 119.42 109.246 118.84 108.906 118.56C112.166 117.26 112.966 114.82 113.346 112.4ZM114.486 113.84C115.146 115.84 116.546 117.56 118.506 118.3C118.146 118.62 117.646 119.26 117.406 119.7C115.266 118.72 113.866 116.64 113.126 114.14L114.486 113.84ZM100.646 115.2H105.966V116.66H100.646V115.2ZM100.646 117.88H105.966V119.34H100.646V117.88ZM99.9462 112.48H106.826V114.02H99.9462V112.48ZM101.386 120.58H105.926V126.52H101.386V124.98H104.326V122.12H101.386V120.58ZM100.626 120.58H102.266V127.42H100.626V120.58ZM102.026 109.54L103.606 109.16C104.046 110 104.506 111.1 104.706 111.82L103.026 112.28C102.866 111.54 102.406 110.38 102.026 109.54ZM107.226 110.84H110.326V112.3H107.226V110.84ZM106.786 115.4H110.826V116.9H106.786V115.4ZM111.766 109.1L113.426 109.44C112.906 111.64 112.006 113.82 110.926 115.2C110.626 114.94 109.926 114.46 109.506 114.24C110.566 112.98 111.346 111.04 111.766 109.1ZM111.566 111.16H117.146V112.68H111.566V111.16ZM116.766 111.16H117.026L117.286 111.1L118.406 111.34C118.086 112.58 117.686 114 117.326 114.88L115.926 114.58C116.226 113.76 116.566 112.46 116.766 111.38V111.16ZM129.846 118.86H133.866V120.32H129.846V118.86ZM129.926 115.52H134.706V123.66H129.926V122.14H133.166V117.04H129.926V115.52ZM129.006 115.52H130.526V124.56H129.006V115.52ZM130.566 109.16L132.426 109.58C131.626 112.38 130.266 115.06 128.766 116.78C128.406 116.46 127.626 115.88 127.166 115.6C128.686 114.08 129.886 111.66 130.566 109.16ZM130.406 112.06H137.426V113.78H129.546L130.406 112.06ZM136.886 112.06H138.686C138.686 112.06 138.686 112.72 138.666 112.98C138.426 122.4 138.206 125.64 137.446 126.64C136.986 127.3 136.526 127.5 135.846 127.58C135.186 127.66 134.126 127.66 133.086 127.62C133.046 127.08 132.826 126.26 132.486 125.74C133.606 125.82 134.606 125.84 135.046 125.84C135.406 125.84 135.606 125.76 135.806 125.48C136.406 124.78 136.666 121.44 136.886 112.46V112.06ZM121.366 115.2H127.106V116.66H121.366V115.2ZM121.366 117.86H127.126V119.32H121.366V117.86ZM120.586 112.48H127.926V114.02H120.586V112.48ZM122.146 120.58H127.106V126.52H122.146V124.98H125.586V122.12H122.146V120.58ZM121.366 120.58H122.866V127.42H121.366V120.58ZM122.586 109.76L123.906 108.98C124.506 109.8 125.166 110.88 125.466 111.6L124.086 112.52C123.786 111.78 123.146 110.6 122.586 109.76ZM142.986 121.32L142.646 113.32L142.586 110.92H144.906L144.846 113.32L144.526 121.32H142.986ZM143.746 126.28C142.886 126.28 142.206 125.6 142.206 124.66C142.206 123.7 142.886 123.04 143.746 123.04C144.626 123.04 145.286 123.7 145.286 124.66C145.286 125.6 144.626 126.28 143.746 126.28ZM166.954 110.64L168.374 109.66C169.514 110.64 170.874 112.02 171.494 112.96L169.954 114.04C169.394 113.08 168.074 111.66 166.954 110.64ZM153.934 114.94H171.834V116.74H153.934V114.94ZM153.594 120.72C155.974 120.32 159.774 119.58 163.274 118.88L163.414 120.58C160.154 121.32 156.654 122.08 154.094 122.62L153.594 120.72ZM157.994 111.34H159.894V125.38C159.894 126.5 159.654 127.04 158.934 127.34C158.234 127.64 157.114 127.7 155.454 127.7C155.374 127.18 155.054 126.32 154.774 125.78C155.994 125.84 157.174 125.82 157.534 125.8C157.874 125.8 157.994 125.7 157.994 125.36V111.34ZM161.934 109.32L163.234 110.92C160.794 111.72 157.394 112.3 154.514 112.66C154.414 112.22 154.174 111.52 153.954 111.08C156.754 110.68 159.954 110.02 161.934 109.32ZM163.914 109.28H165.894C165.814 117.98 167.694 125.84 169.874 125.84C170.354 125.84 170.594 124.84 170.714 122.34C171.114 122.78 171.774 123.22 172.294 123.42C171.974 126.82 171.334 127.76 169.694 127.76C165.674 127.76 163.994 118.58 163.914 109.28ZM169.354 117.54L171.014 118.26C169.014 121.94 165.734 125.06 162.074 126.98C161.794 126.52 161.254 125.9 160.774 125.48C164.294 123.82 167.554 120.9 169.354 117.54ZM180.874 113.22H184.674V114.62H180.874V113.22ZM187.074 113.22H190.914V114.62H187.074V113.22ZM190.334 110.24H192.134V125.38C192.134 126.5 191.894 127.04 191.154 127.32C190.414 127.64 189.194 127.66 187.314 127.66C187.234 127.16 186.934 126.32 186.674 125.84C188.014 125.9 189.414 125.88 189.814 125.86C190.194 125.86 190.334 125.74 190.334 125.36V110.24ZM179.774 110.24H181.534V127.64H179.774V110.24ZM180.974 110.24H185.294V117.7H180.974V116.24H183.834V111.72H180.974V110.24ZM191.234 110.24V111.72H187.874V116.24H191.234V117.7H186.354V110.24H191.234ZM177.914 109.2L179.674 109.7C178.534 113.18 176.714 116.82 174.714 119.18C174.554 118.72 174.074 117.68 173.774 117.18C175.454 115.24 176.994 112.22 177.914 109.2ZM176.314 114.36L178.074 112.62L178.114 112.66V127.68H176.314V114.36ZM201.714 119.38H213.254V121.06H201.714V119.38ZM206.194 110.78H211.574L211.154 112.1H205.374L206.194 110.78ZM209.014 116.74H210.814V125.36C210.814 126.32 210.634 126.86 209.954 127.16C209.294 127.44 208.254 127.48 206.714 127.48C206.654 126.96 206.394 126.18 206.154 125.66C207.234 125.7 208.294 125.7 208.614 125.68C208.934 125.68 209.014 125.6 209.014 125.34V116.74ZM206.874 109.1L208.714 109.62C207.214 111.56 204.834 113.34 202.414 114.46C202.154 114.12 201.594 113.58 201.234 113.28C203.574 112.36 205.734 110.7 206.874 109.1ZM202.994 122.14L204.454 121.3C205.414 122.26 206.534 123.58 206.994 124.48L205.454 125.44C205.014 124.54 203.954 123.14 202.994 122.14ZM204.734 112.56L205.894 111.72C207.054 112.62 208.374 113.94 208.954 114.9L207.714 115.82C207.154 114.86 205.894 113.5 204.734 112.56ZM196.394 114.84H200.174V116.48H196.394V114.84ZM194.794 119.12H200.054V120.76H194.794V119.12ZM199.334 109.14H201.074V127.68H199.334V109.14ZM195.614 109.92H197.274V116.48H195.614V109.92ZM195.834 119.78H197.494V121.04C197.494 122.74 197.294 125.7 196.014 127.72C195.694 127.44 195.014 127 194.594 126.82C195.674 125.04 195.834 122.48 195.834 120.98V119.78ZM210.894 110.78H211.234L211.554 110.7L212.714 111.26C210.974 115.7 206.914 118.2 202.614 119.44C202.414 119.02 201.994 118.4 201.674 118.04C205.614 117.1 209.474 114.7 210.894 111.08V110.78ZM201.694 115.1C202.794 114.98 204.234 114.76 205.794 114.54L205.914 115.8C204.534 116.04 203.174 116.26 201.994 116.46L201.694 115.1ZM215.534 125.6H233.794V127.1H215.534V125.6ZM215.634 112.58H233.714V113.98H215.634V112.58ZM215.894 117.36H233.474V118.76H215.894V117.36ZM217.954 121.54H231.414V126.36H229.574V123H227.434V126.36H225.694V123H223.554V126.36H221.814V123H219.714V126.36H217.954V121.54ZM223.594 109.1H225.474V117.76H223.594V109.1ZM217.774 110.22H231.514V116.34H217.654V115.02H229.654V111.56H217.774V110.22ZM217.814 118.88L219.274 119.46C218.814 120.76 218.094 122.06 216.814 122.88L215.534 121.74C216.634 121.12 217.414 120 217.814 118.88ZM221.194 119.22L222.794 118.96C223.054 119.62 223.274 120.52 223.334 121.1L221.634 121.42C221.614 120.82 221.414 119.9 221.194 119.22ZM225.274 119.28L226.834 118.86C227.314 119.52 227.774 120.42 227.954 121.04L226.314 121.52C226.154 120.9 225.714 119.96 225.274 119.28ZM229.574 119.34L230.994 118.74C232.054 119.66 233.234 120.92 233.814 121.78L232.334 122.54C231.774 121.66 230.594 120.3 229.574 119.34ZM238.514 109.12H240.394V127.68H238.514V109.12ZM236.734 113.02L238.134 113.22C238.034 114.9 237.674 117.24 237.174 118.72L235.734 118.22C236.234 116.88 236.594 114.66 236.734 113.02ZM240.174 112.94L241.494 112.38C242.114 113.58 242.774 115.14 243.034 116.1L241.634 116.78C241.414 115.8 240.774 114.16 240.174 112.94ZM242.974 112.24H253.014V119.2H251.154V114.02H242.974V112.24ZM241.974 118.2H254.534V120H241.974V118.2ZM246.694 109.12H248.594V115.98C248.594 119.96 247.954 124.76 242.534 127.78C242.274 127.38 241.634 126.68 241.194 126.32C246.454 123.72 246.694 119.42 246.694 115.98V109.12ZM248.654 121.1L250.234 120.32C251.654 122.32 253.534 125.02 254.474 126.64L252.754 127.62C251.914 125.98 250.074 123.18 248.654 121.1ZM263.614 116.26V120.36H267.894V116.26H263.614ZM261.834 114.58H269.794V122.02H261.834V114.58ZM257.414 109.88H274.334V127.68H272.294V111.8H259.374V127.68H257.414V109.88ZM258.514 124.82H273.454V126.6H258.514V124.82ZM277.754 109.76H295.214V111.08H277.754V109.76ZM283.194 110.34H284.894V114.9H283.194V110.34ZM287.834 110.34H289.594V114.9H287.834V110.34ZM280.414 113.08V114.12H292.574V113.08H280.414ZM278.694 111.9H294.374V115.3H278.694V111.9ZM285.394 116.26H294.914V117.54H285.394V116.26ZM286.234 120.66V121.36H292.234V120.66H286.234ZM286.234 119.08V119.76H292.234V119.08H286.234ZM284.654 118.16H293.874V122.3H284.654V118.16ZM280.934 115.4L282.574 115.96C281.534 117.4 279.854 118.9 278.314 119.82C278.034 119.48 277.534 118.92 277.194 118.64C278.614 117.86 280.174 116.54 280.934 115.4ZM281.414 118.16L283.014 118.7C281.854 120.5 279.974 122.42 278.134 123.62C277.894 123.28 277.414 122.7 277.094 122.42C278.774 121.38 280.554 119.64 281.414 118.16ZM285.334 115.22L286.954 115.66C286.174 117.4 284.874 119.08 283.574 120.18C283.294 119.9 282.634 119.32 282.254 119.06C283.534 118.12 284.674 116.7 285.334 115.22ZM287.114 122.98H292.854V124.1H286.234L287.114 122.98ZM292.294 122.98H292.614L292.914 122.92L293.934 123.5C291.854 126.26 287.434 127.3 282.834 127.72C282.694 127.34 282.394 126.78 282.154 126.46C286.374 126.18 290.614 125.3 292.294 123.2V122.98ZM284.434 122.4C286.434 124.66 290.734 125.94 295.434 126.34C295.114 126.68 294.754 127.28 294.574 127.66C289.734 127.12 285.454 125.62 283.154 122.9L284.434 122.4ZM287.494 121.66L288.934 122.14C287.714 123.62 285.734 124.76 283.614 125.5C283.394 125.22 282.934 124.7 282.614 124.46C284.614 123.8 286.514 122.78 287.494 121.66ZM279.714 120.86L280.874 119.7L281.394 119.84V127.68H279.714V120.86ZM306.294 109.14L308.034 109.56C307.274 111.7 305.994 113.74 304.614 115.06C304.314 114.74 303.614 114.14 303.214 113.88C304.534 112.74 305.654 110.96 306.294 109.14ZM306.254 114.72L307.974 115.2C307.314 116.76 306.214 118.36 305.134 119.38C304.834 119.06 304.134 118.52 303.734 118.26C304.774 117.38 305.714 116.04 306.254 114.72ZM306.314 110.9H314.674V112.52H305.654L306.314 110.9ZM311.874 115.4L313.394 114.68C314.394 115.88 315.414 117.48 315.874 118.56L314.274 119.4C313.834 118.32 312.814 116.62 311.874 115.4ZM314.174 110.9H314.454L314.754 110.84L316.074 111.14C315.574 112.36 314.954 113.74 314.474 114.62L312.854 114.28C313.294 113.48 313.834 112.18 314.174 111.14V110.9ZM302.414 109.06L304.094 109.62C302.814 112.14 300.794 114.64 298.854 116.24C298.634 115.88 298.034 115.1 297.674 114.74C299.514 113.38 301.314 111.22 302.414 109.06ZM300.574 113.06L302.354 111.28L302.394 111.3V120.7H300.574V113.06ZM302.234 121.66H304.134V124.9C304.134 125.5 304.354 125.58 305.614 125.58C306.194 125.58 308.974 125.58 309.754 125.58C310.794 125.58 310.974 125.32 311.074 123.32C311.494 123.64 312.294 123.92 312.814 124.02C312.574 126.68 311.994 127.32 309.874 127.32C309.334 127.32 306.014 127.32 305.474 127.32C302.894 127.32 302.234 126.8 302.234 124.94V121.66ZM305.334 120.88L306.774 120.06C307.854 121.04 309.074 122.46 309.614 123.44L308.034 124.38C307.554 123.4 306.374 121.92 305.334 120.88ZM312.234 121.96L313.914 121.3C314.834 122.74 315.774 124.62 316.094 125.88L314.294 126.6C314.014 125.36 313.134 123.42 312.234 121.96ZM299.874 121.68L301.574 122.38C301.074 123.76 300.374 125.64 299.674 126.88L297.894 126.04C298.674 124.86 299.434 123.06 299.874 121.68ZM309.194 113.16H311.014V120.62H309.194V113.16Z" fill="black"/>
<g clip-path="url(#clip0_2302_725)">
<path d="M566.264 482.793C566.264 482.793 319.574 481.769 304.074 483.452C301.18 483.781 299.494 486.707 297.515 488.939C294.731 492.084 284.947 500.388 280.33 503.79C275.786 507.118 276.043 512.093 281.356 512.861C284.947 513.373 301.509 516.263 307.482 511.508C318.035 503.058 315.214 487.878 304.734 486.012C298.688 484.952 290.81 491.389 282.858 498.449C270.51 509.386 249.001 520.799 239.474 530.126C233.647 535.833 234.087 529.614 227.528 526.761C222.068 524.383 207.888 521.823 200.889 521.128C181.981 519.299 173.26 512.312 157.687 509.715C134.016 505.765 160.839 517.397 169.01 520.726C182.201 526.139 204.517 521.677 219.687 527.932C223.754 529.614 235.443 535.613 239.18 542.856C242.112 548.525 238.924 556.719 234.307 561.438C232.072 563.706 227.785 564.803 224.707 565.717C214.703 568.68 227.711 570.509 233.171 569.192C249.99 565.095 246.546 544.429 242.405 538.027C240.243 534.699 237.971 535.906 239.803 540.003C240.426 541.356 241.232 542.783 241.526 543.734C250.686 571.131 210.16 572.704 191.655 565.571C182.311 561.95 147.94 546.257 137.094 532.76C126.505 519.592 141.968 506.057 158.567 512.166C165.016 514.544 178.024 519.628 181.688 520.323C186.195 521.164 191.508 521.677 194.147 522.116C196.785 522.554 217.048 524.091 221.372 526.395C225.733 528.7 228.334 530.455 231.632 531.407C237.128 533.016 237.568 530.565 233.428 528.334C228.188 525.481 215.802 521.238 211.039 520.433C206.019 519.555 172.601 518.567 185.059 511.142C193.047 506.387 197.335 506.204 205.396 502.546C219.1 496.328 240.243 484.769 222.801 470.174C210.892 460.188 204.004 440.435 185.426 431.254C177.841 427.523 109.136 433.449 92.1338 435.204C85.6481 435.899 80.1883 436.924 75.9012 435.899C60.7678 432.278 85.3183 403.198 92.6102 404.113C96.6775 404.625 103.09 407.002 106.278 407.258C115.622 407.99 133.503 410.624 146.731 411.538C158.42 412.343 166.701 410.697 177.218 410.697C183.191 410.697 189.969 409.599 195.319 410.514C200.706 411.465 203.674 412.233 205.836 413.257C207.961 414.281 220.09 419.659 221.372 422.036C224.926 428.693 216.425 422.439 215.143 421.853C212.321 420.573 208.73 418.269 206.678 417.61C204.626 416.915 198.837 416.074 197.445 415.818C196.089 415.562 192.498 414.72 195.136 413.843C197.774 413.001 203.6 417.61 205.286 418.964C206.569 419.988 213.054 423.499 216.535 425.694C223.571 430.083 216.609 431.071 210.233 428.181C207.411 426.901 197.518 422.914 195.539 421.268C193.56 419.659 194.33 416.769 195.796 417.683C197.261 418.634 198.287 424.487 202.098 427.486C203.014 428.181 214.886 436.302 207.888 437.619C206.092 437.948 202.611 436.851 200.706 435.387C198.837 433.924 195.686 431.291 193.89 430.12C192.095 428.913 189.383 425.182 191.765 425.694C193.451 426.06 195.502 430.669 197.078 433.961C197.921 435.717 198.177 436.704 199.753 437.875C203.784 440.838 217.415 448.812 223.168 451.555C226.356 453.091 225.806 452.653 227.821 449.251C235.736 435.79 262.045 383.921 272.159 364.864C275.97 357.694 274.357 357.548 281.942 356.926C292.532 356.012 314.774 355.536 326.207 355.756C335.404 355.938 334.304 355.024 330.091 363.218C322.212 378.471 302.169 414.903 293.631 430.486C289.051 438.826 291.689 437.472 282.748 439.777C269.484 443.179 241.049 449.69 232.365 451.445C227.785 452.36 223.754 450.019 219.76 447.897C213.274 444.422 201.145 437.692 199.936 436.741C193.817 431.912 185.426 426.718 177.364 426.645C172.308 426.608 162.011 427.121 160.399 427.194C141.308 428.035 119.103 431.291 100.818 431.291C90.7414 431.291 74.2156 436.302 73.666 432.754M73.8858 432.681C72.53 425.804 88.6894 401.223 104.409 403.454C114.559 404.917 132.477 407.149 136.728 407.149C157.138 407.149 145.779 402.576 143.433 386.116C141.015 369.143 148.93 343.977 151.788 325.468C156.625 294.559 167.105 307.216 167.105 318.701C167.105 320.823 167.617 323.859 168.13 327.188C170.622 343.758 159.19 375.435 165.382 386.884C166.811 389.481 170.659 393.395 173.664 396.358C179.563 402.174 178.684 401.113 170.842 404.369C159.336 409.16 172.601 408.136 175.972 408.136C177.767 408.136 191.655 407.588 194.367 408.575C197.115 409.563 200.156 409.782 201.182 410.148C202.208 410.514 204.993 410.587 208.584 411.611C212.175 412.635 210.599 412.196 211.699 413.586C214.154 416.622 216.132 415.671 215.986 411.684C215.949 410.624 214.337 406.6 213.384 408.356C212.431 410.111 217.891 410.953 219.064 411.794C220.2 412.635 225.549 413.586 226.392 416.769C227.235 419.951 227.345 419.695 227.858 421.378C229.763 427.56 236.176 430.01 235.15 421.524C234.6 416.879 234.93 414.867 231.852 411.282C230.863 410.148 225.659 404.259 225.586 406.71C225.513 408.429 229.727 409.38 232.365 410.221C234.783 410.989 234.344 410.806 234.747 413.001C237.055 425.292 242.735 418.817 241.562 415.562C240.719 413.184 238.411 412.05 236.762 410.111C235.15 408.136 233.098 406.6 230.533 405.503C227.968 404.405 223.974 403.198 221.042 403.125C218.111 403.052 212.321 404.332 210.892 404.844C202.611 407.77 193.231 404.478 184.766 402.613C179.05 401.369 177.474 403.052 172.381 405.868C166.188 409.307 155.965 412.416 151.385 404.332C149.773 401.515 147.867 396.065 146.621 391.164C145.046 385.092 144.496 365.961 145.998 361.718C146.255 360.986 147.171 355.463 148.197 349.94C150.652 336.881 155.122 325.359 155.709 311.605C155.855 307.984 156.991 304.289 153.73 299.168C148.82 291.194 141.894 280.257 133.833 291.816C130.315 296.864 128.813 302.899 129.253 306.594C129.766 311.02 132.331 331.833 129.253 326.2C126.175 320.567 129.253 311.203 133.686 307.801C146.621 297.888 138.56 289.182 132.074 280.184C127.75 274.185 115.182 268.223 128.483 279.964C138.89 289.146 142.371 284.756 149.773 278.794C152.118 276.892 154.096 275.026 149.846 274.661C147.977 274.478 145.632 274.404 145.009 272.393C144.056 269.247 151.568 269.759 153.473 270.417C155.342 271.112 155.965 270.344 155.855 268.954C155.416 262.004 163.733 269.796 164.136 265.296C164.283 263.614 164.466 260.724 164.649 257.688C165.309 247.336 176.412 235.156 172.015 226.56C171.612 225.755 164.686 220.963 156.075 215.037C143.25 206.185 126.688 194.809 122.437 190.383C100.122 166.973 191.399 201.723 183.227 231.461C182.494 234.131 181.725 229.852 177.474 227.511C164.063 220.048 155.599 220.597 143.14 225.499C114.816 236.619 125.332 220.634 112.654 219.061C100.781 217.598 103.053 231.351 102.614 238.228C102.174 244.739 95.6149 242.8 96.0912 237.131C96.6775 230.327 104.336 176.739 118.81 190.603C122.914 194.517 142.884 207.465 144.093 208.673C144.899 209.477 149.736 212.55 153.18 215.586C165.566 226.486 124.782 234.753 121.301 230.839C119.652 228.974 117.564 225.865 113.203 224.036C106.314 221.109 105.362 228.132 105.362 231.717C105.362 235.302 107.597 241.776 110.492 243.825C118.81 249.677 113.057 250.921 117.6 259.883C123.207 270.893 113.716 273.051 111.005 268.003C110.235 266.577 105.545 258.895 102.357 253.664C96.6775 244.41 102.687 243.349 103.053 244.117C103.969 246.019 96.7874 251.47 92.9766 254.871C87.6268 259.663 94.0026 273.417 95.5416 279.745C101.221 303.375 112.324 286.768 116.464 290.901C118.846 293.279 123.28 307.764 119.213 305.387C115.365 303.155 115.475 290.463 115.329 285.305C115.145 280.147 105.875 265.662 102.32 261.602C94.882 253.116 93.0499 260.322 79.9685 263.577M80.2616 263.394C80.2616 263.394 67.5467 267.747 62.0869 270.637C58.8624 272.356 55.6012 272.393 53.5126 273.527C47.833 276.636 57.2867 298.839 63.2961 312.556C68.8658 325.285 76.634 349.866 70.1116 361.974C65.3481 370.826 60.8777 384.141 67.0337 391.968C71.1376 397.199 75.0584 399.321 77.7333 400.638C83.8159 403.674 79.8952 410.002 76.2309 414.135C67.2535 424.194 67.3634 438.131 44.8283 433.229C13.0958 426.352 19.5449 371.082 19.5449 346.465C19.5449 299.68 48.0895 244.922 67.2902 312.812C68.7559 318.006 72.3102 333.881 73.7759 343.282C74.9485 350.744 74.2889 359.011 70.8811 365.851C66.0443 375.508 66.6306 387.177 74.1423 395.004C78.0631 399.101 77.2203 403.015 74.8385 406.929C51.3506 445.447 56.8104 425.365 36.5837 424.926C17.8227 424.523 34.2752 476.721 71.7606 492.304C84.0725 497.425 103.53 499.802 120.275 498.778C148.6 497.059 153.107 478.697 177.694 502.253C187.295 511.471 188.577 506.496 198.214 502.802C204.297 500.461 273.002 450.86 273.624 454.811C274.137 458.212 262.339 459.566 255.853 458.725C249.367 457.883 246.362 449.616 244.164 450.897C241.929 452.177 245.63 452.945 250.21 452.177C254.827 451.409 279.341 443.471 282.895 442.374C305.833 435.278 310.34 465.345 305.943 474.6C302.865 481.074 297.479 484.915 300.923 488.061C304.368 491.206 308.948 499.327 307.849 503.058C306.09 508.947 302.206 511.398 298.248 512.715C272.745 521.274 305.797 569.924 266.699 578.118C208.767 590.262 -96.6487 579.069 -96.6487 579.069" stroke="#515151" stroke-width="1.5" stroke-miterlimit="2.6131"/>
</g>
<defs>
<clipPath id="clip0_2302_725">
<rect width="375" height="402" fill="white" transform="translate(0 183)"/>
</clipPath>
</defs>
</svg>
