<svg width="865" height="644" viewBox="0 0 865 644" fill="none" xmlns="http://www.w3.org/2000/svg">
<g clip-path="url(#clip0_1847_1276)">
<path d="M887.573 480.02C887.573 480.02 492.869 478.381 468.069 481.073C463.437 481.599 460.741 486.28 457.575 489.849C453.119 494.881 437.465 508.162 430.078 513.603C422.808 518.927 423.219 526.884 431.72 528.113C437.465 528.932 463.965 533.554 473.522 525.948C490.406 512.433 485.892 488.152 469.124 485.168C459.451 483.472 446.846 493.769 434.123 505.061C414.366 522.555 379.951 540.809 364.708 555.729C355.386 564.856 356.089 554.91 345.595 550.346C336.859 546.543 314.17 542.447 302.972 541.336C272.72 538.41 258.767 527.236 233.85 523.081C195.976 516.763 238.892 535.368 251.966 540.692C273.072 549.351 308.777 542.213 333.049 552.218C339.556 554.91 358.259 564.505 364.239 576.089C368.929 585.158 363.828 598.264 356.441 605.811C352.865 609.439 346.005 611.194 341.081 612.657C325.075 617.396 345.888 620.321 354.624 618.215C381.534 611.662 376.023 578.605 369.398 568.366C365.939 563.042 362.304 564.973 365.235 571.526C366.232 573.691 367.522 575.972 367.991 577.494C382.648 621.316 317.805 623.832 288.198 612.423C273.248 606.63 218.255 581.531 200.901 559.941C183.957 538.879 208.698 517.231 235.257 527.001C245.575 530.804 266.388 538.937 272.251 540.049C279.462 541.394 287.964 542.213 292.185 542.916C296.406 543.618 328.827 546.075 335.745 549.761C342.722 553.447 346.885 556.255 352.161 557.777C360.956 560.351 361.659 556.431 355.034 552.862C346.65 548.298 326.834 541.511 319.212 540.224C311.18 538.82 257.711 537.24 277.645 525.363C290.426 517.757 297.285 517.465 310.184 511.614C332.111 501.668 365.939 483.179 338.032 459.835C318.978 443.862 307.956 412.268 278.231 397.582C266.095 391.615 156.168 401.093 128.964 403.901C118.587 405.013 109.851 406.651 102.992 405.013C78.7784 399.221 118.059 352.707 129.726 354.17C136.234 354.989 146.494 358.792 151.595 359.201C166.545 360.371 195.155 364.584 216.32 366.047C235.022 367.334 248.272 364.701 265.099 364.701C274.655 364.701 285.501 362.946 294.061 364.408C302.679 365.93 307.428 367.158 310.887 368.797C314.288 370.435 333.693 379.035 335.745 382.838C341.432 393.487 327.831 383.482 325.779 382.546C321.264 380.498 315.519 376.812 312.236 375.759C308.952 374.647 299.689 373.302 297.461 372.892C295.292 372.482 289.547 371.137 293.768 369.733C297.989 368.387 307.311 375.759 310.008 377.924C312.06 379.562 322.437 385.179 328.007 388.689C339.263 395.71 328.124 397.29 317.922 392.668C313.408 390.62 297.579 384.243 294.413 381.61C291.247 379.035 292.478 374.413 294.823 375.876C297.168 377.397 298.81 386.758 304.907 391.556C306.373 392.668 325.368 405.656 314.17 407.763C311.298 408.289 305.728 406.534 302.679 404.194C299.689 401.853 294.647 397.641 291.774 395.769C288.902 393.838 284.563 387.87 288.374 388.689C291.071 389.274 294.354 396.646 296.875 401.912C298.223 404.72 298.634 406.3 301.155 408.172C307.604 412.911 329.414 425.666 338.618 430.054C343.719 432.511 342.839 431.809 346.064 426.368C358.728 404.837 400.823 321.873 417.004 291.391C423.101 279.923 420.522 279.689 432.658 278.695C449.601 277.232 485.189 276.471 503.48 276.822C518.196 277.115 516.437 275.652 509.695 288.758C497.09 313.156 465.02 371.429 451.36 396.354C444.032 409.693 448.253 407.529 433.948 411.215C412.724 416.656 367.229 427.07 353.334 429.879C346.005 431.341 339.556 427.597 333.166 424.203C322.789 418.645 303.383 407.88 301.448 406.359C291.657 398.635 278.231 390.327 265.333 390.21C257.242 390.152 240.768 390.971 238.188 391.088C207.643 392.434 172.114 397.641 142.859 397.641C126.736 397.641 100.295 405.656 99.4155 399.981M99.7673 399.864C97.5981 388.865 123.453 349.547 148.605 353.116C164.845 355.457 193.514 359.026 200.315 359.026C232.97 359.026 214.796 351.712 211.043 325.384C207.174 298.236 219.838 257.983 224.411 228.378C232.15 178.939 248.917 199.183 248.917 217.554C248.917 220.947 249.738 225.804 250.559 231.128C254.546 257.632 236.254 308.299 246.162 326.612C248.448 330.766 254.604 337.027 259.412 341.766C268.851 351.069 267.444 349.372 254.897 354.579C236.488 362.244 257.711 360.605 263.105 360.605C265.978 360.605 288.198 359.728 292.537 361.308C296.934 362.887 301.8 363.238 303.441 363.823C305.083 364.408 309.539 364.525 315.284 366.164C321.03 367.802 318.509 367.1 320.268 369.323C324.196 374.179 327.362 372.658 327.127 366.281C327.069 364.584 324.489 358.148 322.965 360.956C321.44 363.765 330.176 365.111 332.052 366.456C333.869 367.802 342.429 369.323 343.777 374.413C345.126 379.503 345.302 379.094 346.123 381.785C349.171 391.673 359.431 395.593 357.79 382.019C356.91 374.589 357.438 371.371 352.513 365.637C350.93 363.823 342.605 354.404 342.488 358.324C342.37 361.073 349.113 362.595 353.334 363.94C357.203 365.169 356.5 364.876 357.145 368.387C360.838 388.046 369.926 377.69 368.05 372.483C366.701 368.679 363.008 366.866 360.369 363.765C357.79 360.605 354.506 358.148 350.403 356.393C346.299 354.638 339.908 352.707 335.218 352.59C330.528 352.473 321.264 354.521 318.978 355.34C305.728 360.02 290.719 354.755 277.176 351.771C268.03 349.781 265.509 352.473 257.36 356.978C247.452 362.478 231.094 367.451 223.766 354.521C221.186 350.016 218.137 341.298 216.144 333.458C213.623 323.746 212.744 293.146 215.147 286.359C215.558 285.189 217.024 276.354 218.665 267.52C222.593 246.632 229.746 228.202 230.684 206.203C230.918 200.411 232.736 194.502 227.518 186.311C219.662 173.556 208.581 156.062 195.683 174.551C190.055 182.625 187.651 192.279 188.354 198.188C189.175 205.267 193.279 238.558 188.354 229.548C183.43 220.538 188.354 205.56 195.448 200.119C216.144 184.263 203.246 170.338 192.869 155.945C185.951 146.35 165.841 136.813 187.123 155.594C203.774 170.28 209.343 163.259 221.186 153.722C224.938 150.68 228.104 147.696 221.303 147.111C218.313 146.818 214.561 146.701 213.564 143.483C212.04 138.452 224.059 139.271 227.108 140.324C230.098 141.435 231.094 140.207 230.918 137.983C230.215 126.867 243.523 139.329 244.168 132.133C244.403 129.441 244.696 124.819 244.989 119.963C246.044 103.405 263.809 83.9223 256.773 70.173C256.128 68.8858 245.048 61.2213 231.27 51.7431C210.75 37.5842 184.25 19.3883 177.45 12.3088C141.745 -25.1361 287.788 30.4462 274.714 78.013C273.541 82.2841 272.31 75.4387 265.509 71.6942C244.051 59.7586 230.508 60.6362 210.574 68.4763C165.255 86.2626 182.081 60.6947 161.796 58.1789C142.8 55.8386 146.435 77.8375 145.732 88.837C145.028 99.2513 134.534 96.1504 135.296 87.0817C136.234 76.1993 148.487 -9.51456 171.645 12.6599C178.212 18.9202 210.164 39.632 212.099 41.5627C213.389 42.8499 221.127 47.7645 226.639 52.6207C246.455 70.056 181.202 83.2787 175.632 77.0184C172.994 74.0345 169.652 69.0613 162.675 66.136C151.653 61.4553 150.129 72.6888 150.129 78.4226C150.129 84.1563 153.705 94.5122 158.337 97.7887C171.645 107.15 162.441 109.139 169.711 123.474C178.681 141.084 163.496 144.536 159.158 136.462C157.926 134.18 150.422 121.894 145.321 113.527C136.234 98.7248 145.849 97.028 146.435 98.2567C147.901 101.299 136.41 110.017 130.313 115.458C121.753 123.123 131.954 145.121 134.417 155.243C143.504 193.039 161.268 166.477 167.893 173.088C171.704 176.891 178.798 200.06 172.29 196.257C166.134 192.688 166.31 172.386 166.076 164.136C165.783 155.887 150.95 132.718 145.263 126.223C133.361 112.65 130.43 124.176 109.5 129.383M109.969 129.09C109.969 129.09 89.6247 136.053 80.8891 140.675C75.7298 143.425 70.5119 143.483 67.1701 145.297C58.0827 150.27 73.2088 185.784 82.8238 207.725C91.7353 228.085 104.164 267.403 93.7286 286.769C86.107 300.928 78.9543 322.224 88.8039 334.745C95.3702 343.112 101.643 346.505 105.923 348.611C115.656 353.467 109.382 363.589 103.52 370.201C89.1556 386.29 89.3315 408.582 53.2752 400.742C2.5033 389.742 12.8218 301.337 12.8218 261.961C12.8218 187.13 58.4931 99.5439 89.2143 208.134C91.5594 216.442 97.2463 241.835 99.5914 256.871C101.468 268.807 100.412 282.03 94.9598 292.97C87.2209 308.417 88.1589 327.08 100.178 339.601C106.451 346.154 105.102 352.414 101.292 358.675C63.711 420.283 72.4466 388.163 40.0839 387.46C10.0663 386.817 36.3903 470.307 96.3669 495.232C116.066 503.423 147.197 507.226 173.991 505.588C219.31 502.838 226.521 473.467 265.861 511.146C281.221 525.89 283.273 517.933 298.692 512.023C308.425 508.279 418.352 428.942 419.349 435.261C420.17 440.702 401.292 442.867 390.914 441.522C380.537 440.176 375.73 426.953 372.212 429.001C368.636 431.049 374.557 432.277 381.886 431.049C389.273 429.82 428.495 417.124 434.182 415.369C470.883 404.018 478.094 452.112 471.059 466.914C466.134 477.27 457.516 483.413 463.027 488.445C468.538 493.477 475.867 506.465 474.108 512.433C471.294 521.853 465.079 525.773 458.747 527.879C417.942 541.57 470.825 619.385 408.268 632.491C315.577 651.916 -173.088 634.012 -173.088 634.012" stroke="currentColor" stroke-width="1.5" stroke-miterlimit="2.6131"/>
</g>
<defs>
<clipPath id="clip0_1847_1276">
<rect width="864" height="643" fill="white" transform="translate(0.75 0.5)"/>
</clipPath>
</defs>
</svg>
