<svg width="1448" height="644" viewBox="0 0 1448 644" fill="none" xmlns="http://www.w3.org/2000/svg">
<path d="M574.079 143.605L572.615 142.861C573.239 141.613 573.719 139.597 573.959 138.013L575.423 138.469C575.183 140.101 574.751 142.237 574.079 143.605ZM578.399 142.573H580.415C581.015 142.573 581.135 142.237 581.183 139.909C581.567 140.197 582.287 140.485 582.767 140.605C582.599 143.413 582.119 144.133 580.607 144.133H578.135C576.311 144.133 575.855 143.629 575.855 141.949V137.701H577.655V141.949C577.655 142.477 577.751 142.573 578.399 142.573ZM582.119 138.349L583.655 137.797C584.423 139.381 585.359 141.493 585.791 142.741L584.183 143.437C583.751 142.141 582.887 139.981 582.119 138.349ZM580.895 134.917V132.613H576.671V134.917H580.895ZM588.527 127.933L590.495 128.461C589.583 130.645 588.383 132.661 586.967 134.365C587.735 139.045 588.791 142.237 589.559 142.261C589.919 142.261 590.159 140.917 590.207 138.037C590.663 138.493 591.359 138.997 591.935 139.237C591.599 143.245 590.951 144.349 589.271 144.349C587.471 144.349 586.127 141.013 585.239 136.261C584.663 136.813 584.087 137.269 583.487 137.725C583.247 137.413 582.671 136.837 582.215 136.453H579.143C579.839 137.509 580.703 138.925 581.135 139.765L579.671 140.509C579.263 139.597 578.375 138.085 577.655 136.957L578.759 136.453H574.871V131.077H582.647V135.757C583.415 135.205 584.159 134.557 584.831 133.861C584.519 131.629 584.279 129.157 584.135 126.709H573.431V129.661C573.431 133.741 573.095 140.197 571.055 144.493C570.671 144.133 569.735 143.509 569.279 143.293C571.199 139.213 571.367 133.477 571.367 129.661V124.861H584.039C583.991 124.069 583.991 123.229 583.967 122.437H586.055C586.055 123.253 586.055 124.045 586.079 124.861H588.671C588.071 124.309 587.183 123.613 586.487 123.085L587.807 122.149C588.623 122.725 589.727 123.517 590.303 124.021L589.271 124.861H591.167V126.709H586.175C586.271 128.413 586.415 130.093 586.607 131.653C587.375 130.501 588.023 129.253 588.527 127.933ZM583.079 128.125V129.685H574.439V128.125H583.079ZM599.279 125.701L597.575 126.373C597.407 125.533 596.879 124.141 596.351 123.133L597.959 122.533C598.487 123.517 599.087 124.837 599.279 125.701ZM601.079 126.421V128.221H594.599V126.421H601.079ZM598.775 137.845H596.999V141.349H598.775V137.845ZM600.455 136.093V143.101H596.999V144.157H595.343V136.093H600.455ZM595.415 134.581V132.829H600.479V134.581H595.415ZM595.415 131.389V129.637H600.479V131.389H595.415ZM603.791 133.381V135.109L606.335 134.893V133.381H603.791ZM606.335 128.509V126.829H603.791V128.509H606.335ZM606.335 131.773V130.117H603.791V131.773H606.335ZM608.399 133.837L610.055 134.461C609.503 135.349 608.903 136.165 608.183 136.957V142.117C608.183 143.077 607.991 143.629 607.367 143.965C606.743 144.277 605.759 144.325 604.343 144.325C604.271 143.821 603.983 142.957 603.695 142.477C604.679 142.525 605.663 142.501 605.927 142.501C606.239 142.501 606.335 142.405 606.335 142.093V138.877C604.871 140.221 603.287 141.373 601.703 142.285C601.535 141.877 601.055 140.965 600.767 140.533C602.663 139.573 604.607 138.181 606.215 136.597C604.439 136.789 602.711 136.981 601.247 137.125L601.079 135.373L601.967 135.301V125.077H603.743C604.007 124.189 604.271 123.181 604.391 122.389L606.575 122.749C606.263 123.517 605.927 124.357 605.639 125.077H608.183V134.173L608.399 133.837ZM612.575 136.765L610.799 137.341C610.583 135.925 609.887 133.573 609.119 131.749L610.775 131.293C611.591 133.021 612.335 135.349 612.575 136.765ZM616.223 127.525V129.565H614.975V141.877C614.975 143.005 614.735 143.557 614.063 143.893C613.367 144.229 612.311 144.301 610.751 144.301C610.631 143.773 610.295 142.861 610.031 142.309C611.111 142.357 612.167 142.357 612.503 142.357C612.839 142.333 612.959 142.237 612.959 141.853V129.565H608.783V127.525H612.959V122.581H614.975V127.525H616.223ZM631.391 124.429V126.157H627.695V124.429H631.391ZM624.719 125.605L622.727 126.157C622.535 125.269 622.007 123.877 621.527 122.893L623.423 122.437C623.927 123.445 624.479 124.765 624.719 125.605ZM627.215 126.421V128.197H619.079V126.421H627.215ZM624.287 137.821H621.815V141.253H624.287V137.821ZM626.159 136.021V143.053H621.815V144.133H619.895V136.021H626.159ZM619.919 134.533V132.781H626.231V134.533H619.919ZM619.919 131.365V129.613H626.231V131.365H619.919ZM631.967 129.853V131.629H627.167V129.853H631.967ZM637.391 137.413H631.319V141.541H637.391V137.413ZM629.231 144.469V135.493H639.599V144.373H637.391V143.485H631.319V144.469H629.231ZM638.711 126.637H636.959C636.839 127.285 636.719 127.957 636.527 128.581C637.367 130.693 638.951 132.493 641.111 133.309C640.655 133.693 640.079 134.437 639.791 134.941C637.991 134.101 636.647 132.637 635.663 130.765C634.751 132.541 633.287 134.029 630.863 135.085C630.671 134.629 630.119 133.933 629.735 133.621C633.431 132.133 634.463 129.397 634.919 126.637H633.815C633.311 127.789 632.735 128.821 632.087 129.613C631.751 129.325 630.887 128.749 630.431 128.485C631.679 126.997 632.591 124.717 633.119 122.413L635.087 122.821C634.919 123.493 634.703 124.213 634.487 124.861H639.335L639.647 124.789L640.991 125.077C640.607 126.541 640.127 128.221 639.695 129.277L638.039 128.917C638.255 128.293 638.495 127.477 638.711 126.637ZM652.559 126.421V128.197H643.847V126.421H647.999C647.615 125.533 646.871 124.165 646.223 123.181L647.783 122.269C648.479 123.229 649.247 124.501 649.607 125.365L648.047 126.421H652.559ZM651.551 131.365H644.783V129.613H651.551V131.365ZM649.775 137.821H646.535V141.253H649.775V137.821ZM651.575 136.021V143.053H646.535V144.133H644.783V136.021H651.575ZM644.783 134.509V132.781H651.575V134.509H644.783ZM658.775 131.797H655.631V133.957H658.775V131.797ZM655.631 137.869H658.775V135.709H655.631V137.869ZM665.303 125.917V126.997C664.991 138.157 664.751 142.021 663.839 143.197C663.311 143.965 662.759 144.205 661.943 144.325C661.175 144.421 659.903 144.421 658.679 144.349C658.631 143.725 658.367 142.765 657.983 142.141C659.279 142.261 660.479 142.261 661.007 142.261C661.415 142.261 661.679 142.165 661.919 141.853C662.567 141.061 662.903 137.437 663.143 127.933H655.919C655.535 128.677 655.103 129.397 654.671 130.021H660.599V139.645H655.631V140.725H653.855V131.125L653.543 131.485C653.135 131.101 652.175 130.453 651.647 130.117C653.447 128.293 654.887 125.437 655.679 122.485L657.911 122.965C657.623 123.997 657.263 124.981 656.855 125.917H665.303ZM670.583 136.909L670.199 127.309L670.127 124.453H672.911L672.815 127.309L672.431 136.909H670.583ZM671.495 142.861C670.463 142.861 669.671 142.069 669.671 140.941C669.671 139.789 670.463 138.973 671.495 138.973C672.551 138.973 673.367 139.789 673.367 140.941C673.367 142.069 672.551 142.861 671.495 142.861ZM704.673 126.973L702.873 128.269C702.201 127.141 700.641 125.413 699.297 124.213L700.977 123.061C702.321 124.213 703.929 125.845 704.673 126.973ZM702.129 132.397L704.121 133.237C703.041 135.229 701.673 137.053 700.065 138.685C700.857 140.917 701.793 142.261 702.777 142.261C703.353 142.261 703.641 141.085 703.761 138.109C704.265 138.637 705.033 139.165 705.633 139.357C705.249 143.437 704.505 144.541 702.561 144.541C700.737 144.541 699.321 142.957 698.265 140.389C696.777 141.661 695.193 142.741 693.513 143.629C693.153 143.077 692.553 142.333 691.977 141.829C693.945 140.917 695.817 139.645 697.521 138.157C696.945 136.213 696.537 133.909 696.249 131.437H690.945V134.797L694.953 134.005L695.121 135.997C693.753 136.309 692.337 136.645 690.945 136.933V141.709C690.945 143.029 690.633 143.677 689.793 144.037C688.953 144.397 687.609 144.469 685.689 144.469C685.569 143.845 685.185 142.813 684.849 142.213C686.313 142.261 687.705 142.261 688.113 142.237C688.545 142.213 688.689 142.093 688.689 141.709V137.437C686.985 137.797 685.425 138.133 684.057 138.421L683.433 136.189C684.849 135.949 686.697 135.613 688.689 135.229V131.437H683.841V129.325H688.689V126.013C687.273 126.253 685.857 126.445 684.561 126.613C684.441 126.109 684.153 125.245 683.865 124.765C687.201 124.261 691.017 123.493 693.345 122.677L694.905 124.549C693.729 124.933 692.361 125.269 690.945 125.557V129.325H696.033C695.841 127.165 695.745 124.909 695.721 122.629H698.025C698.001 124.933 698.097 127.213 698.289 129.325H705.105V131.437H698.529C698.769 133.237 699.057 134.845 699.393 136.309C700.473 135.085 701.433 133.765 702.129 132.397ZM712.617 122.509L714.681 123.085C714.153 124.669 713.529 126.277 712.809 127.813V144.421H710.697V131.701C710.073 132.685 709.449 133.573 708.777 134.341C708.585 133.789 708.009 132.541 707.673 131.989C709.665 129.661 711.513 126.109 712.617 122.509ZM719.625 125.461H716.865V127.285H719.625V125.461ZM716.865 130.861H719.625V128.917H716.865V130.861ZM721.353 123.733V132.565H716.865V144.373H714.801V123.733H721.353ZM724.425 130.861H727.329V128.917H724.425V130.861ZM727.329 125.461H724.425V127.285H727.329V125.461ZM729.441 123.733V141.709C729.441 143.005 729.153 143.653 728.289 144.013C727.401 144.349 725.961 144.397 723.729 144.397C723.633 143.797 723.273 142.837 722.985 142.237C724.593 142.309 726.249 142.309 726.729 142.285C727.161 142.261 727.329 142.117 727.329 141.685V132.565H722.601V123.733H729.441ZM738.273 129.205V122.437H740.337V144.445H738.273V136.213H736.065V136.549C736.065 138.565 735.825 142.093 734.313 144.493C733.929 144.157 733.137 143.653 732.657 143.413C733.929 141.301 734.121 138.277 734.121 136.477V136.213H732.873V134.269H738.273V131.149H733.881V123.373H735.825V129.205H738.273ZM742.617 137.869L744.345 136.861C745.497 137.989 746.817 139.573 747.369 140.653L745.545 141.781C745.017 140.701 743.745 139.045 742.617 137.869ZM751.401 125.965H746.601C747.609 126.805 748.617 127.813 749.265 128.701C750.153 127.885 750.873 126.973 751.401 125.965ZM754.809 134.605V136.573H751.881V141.685C751.881 142.837 751.665 143.485 750.873 143.821C750.081 144.157 748.881 144.205 747.009 144.205C746.937 143.581 746.673 142.669 746.361 142.045C747.681 142.093 748.929 142.093 749.265 142.093C749.649 142.069 749.769 141.997 749.769 141.661V136.573H741.081V134.605H742.137C741.897 134.101 741.393 133.405 741.033 132.997C743.481 132.421 745.905 131.365 747.897 129.877C747.249 128.941 746.193 127.813 745.161 126.901C744.129 127.621 743.001 128.245 741.897 128.749C741.609 128.365 740.937 127.717 740.529 127.381C743.289 126.277 745.881 124.285 747.225 122.413L749.385 122.989C749.049 123.469 748.617 123.925 748.185 124.381H752.409L752.769 124.309L754.137 124.981C752.097 130.165 747.369 133.117 742.329 134.605H749.769V131.461H751.881V134.605H754.809ZM745.953 128.845L746.073 130.357C744.417 130.645 742.833 130.885 741.417 131.125L741.057 129.517C742.377 129.373 744.081 129.109 745.953 128.845ZM779.457 137.437L777.705 138.325C777.057 137.269 775.641 135.661 774.417 134.533L776.121 133.813C777.393 134.893 778.761 136.405 779.457 137.437ZM769.545 125.293V126.517H774.537V125.293H769.545ZM774.537 129.397V128.149H769.545V129.397H774.537ZM767.337 129.397V128.149H757.905V126.517H767.337V125.293H760.449V123.733H767.337V122.389H769.545V123.733H776.745V126.517H779.337V128.149H776.745V130.957H769.545V132.205H779.073V133.813H758.217V132.205H767.337V130.957H760.305V129.397H767.337ZM772.521 136.525L770.577 137.101C770.361 136.381 769.857 135.277 769.329 134.461L771.177 133.957C771.729 134.725 772.305 135.829 772.521 136.525ZM767.001 136.621L765.009 137.005C764.985 136.285 764.745 135.205 764.481 134.389L766.377 134.077C766.713 134.845 766.953 135.925 767.001 136.621ZM762.729 138.877V141.949H765.249V138.877H762.729ZM769.833 138.877H767.289V141.949H769.833V138.877ZM774.441 138.877H771.873V141.949H774.441V138.877ZM776.625 137.125V141.949H779.457V143.749H757.785V141.949H760.665V137.509C760.281 137.965 759.825 138.373 759.297 138.709L757.785 137.365C759.081 136.645 759.993 135.301 760.497 133.981L762.201 134.677C761.913 135.517 761.529 136.381 760.977 137.125H776.625ZM783.705 133.789L782.001 133.213C782.601 131.605 783.033 128.965 783.201 127.045L784.857 127.285C784.737 129.253 784.305 132.037 783.705 133.789ZM790.665 130.693L789.033 131.485C788.793 130.429 788.169 128.797 787.521 127.429V144.421H785.337V122.413H787.521V126.829L788.841 126.277C789.585 127.669 790.401 129.541 790.665 130.693ZM797.361 136.621L799.233 135.709C800.889 138.061 803.121 141.277 804.249 143.197L802.209 144.349C801.201 142.405 799.017 139.093 797.361 136.621ZM797.289 128.197V130.525C797.289 131.389 797.265 132.277 797.169 133.189H800.337V128.197H797.289ZM802.521 133.189H804.321V135.301H796.881C796.209 138.709 794.433 142.093 790.089 144.541C789.777 144.085 789.033 143.221 788.505 142.813C792.465 140.845 794.025 138.109 794.625 135.301H789.393V133.189H794.937C795.009 132.277 795.033 131.365 795.033 130.525V128.197H790.617V126.133H795.033V122.413H797.289V126.133H802.521V133.189ZM820.473 135.757V130.861H815.361V135.757H820.473ZM813.249 128.893H822.705V137.701H813.249V128.893ZM810.345 141.061H825.681V125.605H810.345V141.061ZM808.041 123.325H828.081V144.445H825.681V143.149H810.345V144.445H808.041V123.325ZM848.553 140.173H843.009C843.897 140.677 844.929 141.085 846.033 141.469C847.017 141.085 847.857 140.677 848.553 140.173ZM842.481 136.093V136.933H849.609V136.093H842.481ZM842.481 134.221V135.061H849.609V134.221H842.481ZM835.569 127.093V128.341H838.881V127.093H835.569ZM840.873 124.741V125.701H844.401V124.741H840.873ZM850.041 127.093H846.489V128.341H850.041V127.093ZM840.873 128.341H844.401V127.093H840.873V128.341ZM850.449 138.781L851.601 139.453C850.809 140.533 849.681 141.397 848.337 142.093C849.945 142.453 851.625 142.717 853.401 142.861C853.017 143.245 852.609 143.941 852.393 144.421C850.113 144.157 847.905 143.725 845.937 143.077C843.681 143.821 841.089 144.229 838.473 144.493C838.305 144.013 837.945 143.389 837.633 142.981C839.721 142.861 841.761 142.597 843.609 142.189C842.841 141.829 842.073 141.421 841.425 140.989C840.777 141.301 840.081 141.589 839.385 141.829C839.121 141.493 838.569 140.917 838.209 140.629C838.809 140.413 839.433 140.173 839.985 139.909C839.577 139.573 839.193 139.165 838.833 138.757L840.369 138.181C840.705 138.541 841.065 138.877 841.473 139.189C842.121 138.829 842.721 138.445 843.201 138.037H840.633V134.269C840.201 134.749 839.769 135.181 839.337 135.541C839.097 135.277 838.617 134.845 838.185 134.509C837.753 135.109 837.273 135.685 836.745 136.261V144.445H834.777V138.181C834.153 138.685 833.505 139.189 832.881 139.621C832.593 139.189 832.017 138.517 831.657 138.181C833.649 136.933 835.761 134.893 836.769 133.117L838.425 133.693C839.625 132.637 840.705 131.221 841.377 129.733H833.553V125.701H838.881V124.741H832.449V123.181H853.137V124.741H846.489V125.701H852.153V129.733H841.785L843.345 130.165C843.225 130.381 843.129 130.645 843.009 130.885H852.777V132.397H842.073C841.929 132.661 841.761 132.877 841.569 133.117H851.553V138.037H845.529C845.289 138.325 845.001 138.589 844.713 138.853H850.065L850.449 138.781ZM836.217 129.877L838.161 130.501C836.913 132.229 834.945 134.005 833.097 135.085C832.785 134.701 832.161 134.029 831.777 133.693C833.457 132.757 835.305 131.221 836.217 129.877ZM875.337 126.421H866.985C866.241 127.597 865.425 128.653 864.585 129.469C864.225 129.085 863.409 128.365 862.929 128.077C864.513 126.709 865.833 124.621 866.577 122.437L868.617 122.941C868.425 123.493 868.233 123.997 867.993 124.525H876.273L876.609 124.453L878.169 124.837C877.569 126.253 876.849 127.909 876.273 128.941L874.377 128.533C874.665 127.981 875.025 127.189 875.337 126.421ZM873.201 129.853L875.001 129.013C876.177 130.429 877.401 132.325 877.929 133.621L876.057 134.605C875.529 133.309 874.305 131.317 873.201 129.853ZM870.513 139.429L868.641 140.509C868.089 139.357 866.673 137.605 865.425 136.357L867.153 135.421C868.401 136.573 869.865 138.253 870.513 139.429ZM866.529 129.061L868.569 129.613C867.777 131.485 866.481 133.357 865.209 134.581C864.825 134.221 864.033 133.573 863.553 133.261C864.801 132.205 865.905 130.645 866.529 129.061ZM872.169 127.189V136.069H870.033V127.189H872.169ZM859.809 136.165V128.917C859.137 129.637 858.441 130.309 857.769 130.861C857.481 130.429 856.809 129.493 856.353 129.085C858.537 127.453 860.673 124.933 861.993 122.341L863.961 123.013C863.409 124.117 862.689 125.221 861.945 126.277V136.165H859.809ZM858.729 143.509L856.641 142.501C857.553 141.109 858.441 138.949 858.993 137.341L860.961 138.157C860.361 139.789 859.545 142.021 858.729 143.509ZM865.761 141.973H870.681C871.905 141.973 872.121 141.637 872.265 139.261C872.769 139.645 873.705 139.981 874.305 140.077C874.017 143.245 873.345 144.013 870.849 144.013H865.617C862.545 144.013 861.753 143.389 861.753 141.205V137.293H863.985V141.157C863.985 141.853 864.273 141.973 865.761 141.973ZM873.633 137.653L875.601 136.885C876.705 138.589 877.809 140.797 878.217 142.309L876.081 143.149C875.745 141.685 874.689 139.381 873.633 137.653Z" fill="black"/>
<path d="M614.467 76.8591V42.0771H604.981C604.299 42.0771 603.803 41.5191 603.803 40.8991V35.8151C603.803 35.1951 604.299 34.6371 604.981 34.6371H632.075C632.757 34.6371 633.253 35.1951 633.253 35.8151V40.8991C633.253 41.5191 632.757 42.0771 632.075 42.0771H622.589V76.8591C622.589 77.4791 622.031 78.0371 621.411 78.0371H615.645C615.025 78.0371 614.467 77.4791 614.467 76.8591ZM639.7 76.8591V35.8151C639.7 35.1951 640.258 34.6371 640.878 34.6371H646.644C647.326 34.6371 647.822 35.1951 647.822 35.8151V52.2451H668.034V35.8151C668.034 35.1951 668.53 34.6371 669.212 34.6371H674.916C675.536 34.6371 676.094 35.1951 676.094 35.8151V76.8591C676.094 77.4791 675.536 78.0371 674.916 78.0371H669.212C668.53 78.0371 668.034 77.4791 668.034 76.8591V59.7471H647.822V76.8591C647.822 77.4791 647.326 78.0371 646.644 78.0371H640.878C640.258 78.0371 639.7 77.4791 639.7 76.8591ZM682.762 78.0371C681.832 78.0371 681.336 77.2311 681.708 76.4251L700.99 34.6991C701.176 34.3271 701.486 34.0171 702.044 34.0171H702.664C703.284 34.0171 703.532 34.3271 703.718 34.6991L722.814 76.4251C723.186 77.2311 722.69 78.0371 721.76 78.0371H716.366C715.436 78.0371 715.002 77.6651 714.568 76.7971L711.53 70.1011H692.992L689.954 76.7971C689.706 77.4171 689.148 78.0371 688.156 78.0371H682.762ZM696.03 63.2191H708.492L702.292 49.5791H702.106L696.03 63.2191ZM728.461 76.8591V35.1331C728.461 34.5131 729.019 34.0171 729.639 34.0171H731.189L756.981 61.4211H757.043V35.8151C757.043 35.1951 757.539 34.6371 758.221 34.6371H763.925C764.545 34.6371 765.103 35.1951 765.103 35.8151V77.5411C765.103 78.1611 764.545 78.6571 763.925 78.6571H762.437L736.521 50.1991H736.459V76.8591C736.459 77.4791 735.963 78.0371 735.281 78.0371H729.639C729.019 78.0371 728.461 77.4791 728.461 76.8591ZM776.414 76.5491V36.1251C776.414 35.3191 777.034 34.6371 777.902 34.6371H783.358C784.164 34.6371 784.846 35.3191 784.846 36.1251V52.8651L800.47 35.2571C800.718 34.9471 801.09 34.6371 801.648 34.6371H807.848C809.026 34.6371 809.646 35.9391 808.84 36.8691L792.658 55.0971L810.018 75.8671C810.638 76.6731 810.142 78.0371 808.902 78.0371H802.144C801.524 78.0371 801.152 77.7891 801.028 77.6031L784.846 57.6391V76.5491C784.846 77.3551 784.164 78.0371 783.358 78.0371H777.902C777.034 78.0371 776.414 77.3551 776.414 76.5491ZM814.809 73.8211C814.251 73.2631 813.941 72.9531 814.499 71.9611L816.731 68.1171C817.227 67.2491 818.281 67.2491 818.839 67.6831C819.149 67.8691 824.171 71.5271 828.201 71.5271C831.425 71.5271 833.843 69.4191 833.843 66.7531C833.843 63.5911 831.177 61.4211 825.969 59.3131C820.141 56.9571 814.313 53.2371 814.313 45.9211C814.313 40.4031 818.405 34.0171 828.263 34.0171C834.587 34.0171 839.423 37.2411 840.663 38.1711C841.283 38.5431 841.469 39.5971 841.035 40.2171L838.679 43.7511C838.183 44.4951 837.253 44.9911 836.509 44.4951C836.013 44.1851 831.301 41.0851 827.891 41.0851C824.357 41.0851 822.435 43.4411 822.435 45.4251C822.435 48.3391 824.729 50.3231 829.751 52.3691C835.765 54.7871 842.709 58.3831 842.709 66.3811C842.709 72.7671 837.191 78.6571 828.449 78.6571C820.637 78.6571 816.049 74.9991 814.809 73.8211Z" fill="black"/>
<g clip-path="url(#clip0_2845_759)">
<path d="M1086.57 480.02C1086.57 480.02 691.869 478.381 667.069 481.073C662.437 481.599 659.741 486.28 656.575 489.849C652.119 494.881 636.465 508.162 629.078 513.603C621.808 518.927 622.219 526.884 630.72 528.113C636.465 528.932 662.965 533.554 672.522 525.948C689.406 512.433 684.892 488.152 668.124 485.168C658.451 483.472 645.846 493.769 633.123 505.061C613.366 522.555 578.951 540.809 563.708 555.729C554.386 564.856 555.089 554.91 544.595 550.346C535.859 546.543 513.17 542.447 501.972 541.336C471.72 538.41 457.767 527.236 432.85 523.081C394.976 516.763 437.892 535.368 450.966 540.692C472.072 549.351 507.777 542.213 532.049 552.218C538.556 554.91 557.259 564.505 563.239 576.089C567.929 585.158 562.828 598.264 555.441 605.811C551.865 609.439 545.005 611.194 540.081 612.657C524.075 617.396 544.888 620.321 553.624 618.215C580.534 611.662 575.023 578.605 568.398 568.366C564.939 563.042 561.304 564.973 564.235 571.526C565.232 573.691 566.522 575.972 566.991 577.494C581.648 621.316 516.805 623.832 487.198 612.423C472.248 606.63 417.255 581.531 399.901 559.941C382.957 538.879 407.698 517.231 434.257 527.001C444.575 530.804 465.388 538.937 471.251 540.049C478.462 541.394 486.964 542.213 491.185 542.916C495.406 543.618 527.827 546.075 534.745 549.761C541.722 553.447 545.885 556.255 551.161 557.777C559.956 560.351 560.659 556.431 554.034 552.862C545.65 548.298 525.834 541.511 518.212 540.224C510.18 538.82 456.711 537.24 476.645 525.363C489.426 517.757 496.285 517.465 509.184 511.614C531.111 501.668 564.939 483.179 537.032 459.835C517.978 443.862 506.956 412.268 477.231 397.582C465.095 391.615 355.168 401.093 327.964 403.901C317.587 405.013 308.851 406.651 301.992 405.013C277.778 399.221 317.059 352.707 328.726 354.17C335.234 354.989 345.494 358.792 350.595 359.201C365.545 360.371 394.155 364.584 415.32 366.047C434.022 367.334 447.272 364.701 464.099 364.701C473.655 364.701 484.501 362.946 493.061 364.408C501.679 365.93 506.428 367.158 509.887 368.797C513.288 370.435 532.693 379.035 534.745 382.838C540.432 393.487 526.831 383.482 524.779 382.546C520.264 380.498 514.519 376.812 511.236 375.759C507.952 374.647 498.689 373.302 496.461 372.892C494.292 372.482 488.547 371.137 492.768 369.733C496.989 368.387 506.311 375.759 509.008 377.924C511.06 379.562 521.437 385.179 527.007 388.689C538.263 395.71 527.124 397.29 516.922 392.668C512.408 390.62 496.579 384.243 493.413 381.61C490.247 379.035 491.478 374.413 493.823 375.876C496.168 377.397 497.81 386.758 503.907 391.556C505.373 392.668 524.368 405.656 513.17 407.763C510.298 408.289 504.728 406.534 501.679 404.194C498.689 401.853 493.647 397.641 490.774 395.769C487.902 393.838 483.563 387.87 487.374 388.689C490.071 389.274 493.354 396.646 495.875 401.912C497.223 404.72 497.634 406.3 500.155 408.172C506.604 412.911 528.414 425.666 537.618 430.054C542.719 432.511 541.839 431.809 545.064 426.368C557.728 404.837 599.823 321.873 616.004 291.391C622.101 279.923 619.522 279.689 631.658 278.695C648.601 277.232 684.189 276.471 702.48 276.822C717.196 277.115 715.437 275.652 708.695 288.758C696.09 313.156 664.02 371.429 650.36 396.354C643.032 409.693 647.253 407.529 632.948 411.215C611.724 416.656 566.229 427.07 552.334 429.879C545.005 431.341 538.556 427.597 532.166 424.203C521.789 418.645 502.383 407.88 500.448 406.359C490.657 398.635 477.231 390.327 464.333 390.21C456.242 390.152 439.768 390.971 437.188 391.088C406.643 392.434 371.114 397.641 341.859 397.641C325.736 397.641 299.295 405.656 298.416 399.981M298.767 399.864C296.598 388.865 322.453 349.547 347.605 353.116C363.845 355.457 392.514 359.026 399.315 359.026C431.97 359.026 413.796 351.712 410.043 325.384C406.174 298.236 418.838 257.983 423.411 228.378C431.15 178.939 447.917 199.183 447.917 217.554C447.917 220.947 448.738 225.804 449.559 231.128C453.546 257.632 435.254 308.299 445.162 326.612C447.448 330.766 453.604 337.027 458.412 341.766C467.851 351.069 466.444 349.372 453.897 354.579C435.488 362.244 456.711 360.605 462.105 360.605C464.978 360.605 487.198 359.728 491.537 361.308C495.934 362.887 500.8 363.238 502.441 363.823C504.083 364.408 508.539 364.525 514.284 366.164C520.03 367.802 517.509 367.1 519.268 369.323C523.196 374.179 526.362 372.658 526.127 366.281C526.069 364.584 523.489 358.148 521.965 360.956C520.44 363.765 529.176 365.111 531.052 366.456C532.869 367.802 541.429 369.323 542.777 374.413C544.126 379.503 544.302 379.094 545.123 381.785C548.171 391.673 558.431 395.593 556.79 382.019C555.91 374.589 556.438 371.371 551.513 365.637C549.93 363.823 541.605 354.404 541.488 358.324C541.37 361.073 548.113 362.595 552.334 363.94C556.203 365.169 555.5 364.876 556.145 368.387C559.838 388.046 568.926 377.69 567.05 372.483C565.701 368.679 562.008 366.866 559.369 363.765C556.79 360.605 553.506 358.148 549.403 356.393C545.299 354.638 538.908 352.707 534.218 352.59C529.528 352.473 520.264 354.521 517.978 355.34C504.728 360.02 489.719 354.755 476.176 351.771C467.03 349.781 464.509 352.473 456.36 356.978C446.452 362.478 430.094 367.451 422.766 354.521C420.186 350.016 417.137 341.298 415.144 333.458C412.623 323.746 411.744 293.146 414.147 286.359C414.558 285.189 416.024 276.354 417.665 267.52C421.593 246.632 428.746 228.202 429.684 206.203C429.918 200.411 431.736 194.502 426.518 186.311C418.662 173.556 407.581 156.062 394.683 174.551C389.055 182.625 386.651 192.279 387.354 198.188C388.175 205.267 392.279 238.558 387.354 229.548C382.43 220.538 387.354 205.56 394.448 200.119C415.144 184.263 402.246 170.338 391.869 155.945C384.951 146.35 364.841 136.813 386.123 155.594C402.774 170.28 408.343 163.259 420.186 153.722C423.938 150.68 427.104 147.696 420.303 147.111C417.313 146.818 413.561 146.701 412.564 143.483C411.04 138.452 423.059 139.271 426.108 140.324C429.098 141.435 430.094 140.207 429.918 137.983C429.215 126.867 442.523 139.329 443.168 132.133C443.403 129.441 443.696 124.819 443.989 119.963C445.044 103.405 462.809 83.9223 455.773 70.173C455.128 68.8858 444.048 61.2213 430.27 51.7431C409.75 37.5842 383.25 19.3883 376.45 12.3088C340.745 -25.1361 486.788 30.4462 473.714 78.013C472.541 82.2841 471.31 75.4387 464.509 71.6942C443.051 59.7586 429.508 60.6362 409.574 68.4763C364.255 86.2626 381.081 60.6947 360.796 58.1789C341.8 55.8386 345.435 77.8375 344.732 88.837C344.028 99.2513 333.534 96.1504 334.296 87.0817C335.234 76.1993 347.487 -9.51456 370.645 12.6599C377.212 18.9202 409.164 39.632 411.099 41.5627C412.389 42.8499 420.127 47.7645 425.639 52.6207C445.455 70.056 380.202 83.2787 374.632 77.0184C371.994 74.0345 368.652 69.0613 361.675 66.136C350.653 61.4553 349.129 72.6888 349.129 78.4226C349.129 84.1563 352.705 94.5122 357.337 97.7887C370.645 107.15 361.441 109.139 368.711 123.474C377.681 141.084 362.496 144.536 358.158 136.462C356.926 134.18 349.422 121.894 344.321 113.527C335.234 98.7248 344.849 97.028 345.435 98.2567C346.901 101.299 335.41 110.017 329.313 115.458C320.753 123.123 330.954 145.121 333.417 155.243C342.504 193.039 360.268 166.477 366.893 173.088C370.704 176.891 377.798 200.06 371.29 196.257C365.134 192.688 365.31 172.386 365.076 164.136C364.783 155.887 349.95 132.718 344.263 126.223C332.361 112.65 329.43 124.176 308.5 129.383M308.969 129.09C308.969 129.09 288.625 136.053 279.889 140.675C274.73 143.425 269.512 143.483 266.17 145.297C257.083 150.27 272.209 185.784 281.824 207.725C290.735 228.085 303.164 267.403 292.729 286.769C285.107 300.928 277.954 322.224 287.804 334.745C294.37 343.112 300.643 346.505 304.923 348.611C314.656 353.467 308.382 363.589 302.52 370.201C288.156 386.29 288.332 408.582 252.275 400.742C201.503 389.742 211.822 301.337 211.822 261.961C211.822 187.13 257.493 99.5439 288.214 208.134C290.559 216.442 296.246 241.835 298.591 256.871C300.468 268.807 299.412 282.03 293.96 292.97C286.221 308.417 287.159 327.08 299.178 339.601C305.451 346.154 304.102 352.414 300.292 358.675C262.711 420.283 271.447 388.163 239.084 387.46C209.066 386.817 235.39 470.307 295.367 495.232C315.066 503.423 346.197 507.226 372.991 505.588C418.31 502.838 425.521 473.467 464.861 511.146C480.221 525.89 482.273 517.933 497.692 512.023C507.425 508.279 617.352 428.942 618.349 435.261C619.17 440.702 600.292 442.867 589.914 441.522C579.537 440.176 574.73 426.953 571.212 429.001C567.636 431.049 573.557 432.277 580.886 431.049C588.273 429.82 627.495 417.124 633.182 415.369C669.883 404.018 677.094 452.112 670.059 466.914C665.134 477.27 656.516 483.413 662.027 488.445C667.538 493.477 674.867 506.465 673.108 512.433C670.294 521.853 664.079 525.773 657.747 527.879C616.942 541.57 669.825 619.385 607.268 632.491C514.577 651.916 25.9121 634.012 25.9121 634.012" stroke="#515151" stroke-width="1.5" stroke-miterlimit="2.6131"/>
</g>
<defs>
<clipPath id="clip0_2845_759">
<rect width="864" height="643" fill="white" transform="translate(199.75 0.5)"/>
</clipPath>
</defs>
</svg>
