<svg width="62" height="62" viewBox="0 0 62 62" fill="none" xmlns="http://www.w3.org/2000/svg">
<g clip-path="url(#clip0_1672_3529)">
<path d="M28.8459 1.34828L4.06465 10.6412C1.83672 11.4752 0.359375 13.6198 0.359375 16.0026V42.8211C0.359375 44.9895 1.58652 46.9672 3.5166 47.9323L28.2978 60.3229C29.9062 61.133 31.8006 61.133 33.409 60.3229L58.1902 47.9323C60.1322 46.9672 61.3475 44.9776 61.3475 42.8211V16.0026C61.3475 13.6198 59.8701 11.4871 57.6422 10.6532L32.8609 1.36019C31.5742 0.859804 30.1445 0.859804 28.8459 1.34828ZM30.8594 8.74691L53.7344 17.325V17.4561L30.8594 26.7491L7.98437 17.4561V17.325L30.8594 8.74691ZM34.6719 51.161V33.4209L53.7344 25.6768V41.6297L34.6719 51.161Z" fill="black"/>
</g>
<defs>
<clipPath id="clip0_1672_3529">
<rect width="61" height="61" fill="white" transform="translate(0.359375 0.599609)"/>
</clipPath>
</defs>
</svg>
