<svg width="53" height="53" viewBox="0 0 53 53" fill="none" xmlns="http://www.w3.org/2000/svg">
<path d="M41.5267 17.9837H11.1934C7.59669 17.9837 4.69336 20.8871 4.69336 24.4837V33.1504C4.69336 35.5337 6.64336 37.4837 9.02669 37.4837H13.36V41.8171C13.36 44.2004 15.31 46.1504 17.6934 46.1504H35.0267C37.41 46.1504 39.36 44.2004 39.36 41.8171V37.4837H43.6934C46.0767 37.4837 48.0267 35.5337 48.0267 33.1504V24.4837C48.0267 20.8871 45.1234 17.9837 41.5267 17.9837ZM32.86 41.8171H19.86C18.6684 41.8171 17.6934 40.8421 17.6934 39.6504V30.9837H35.0267V39.6504C35.0267 40.8421 34.0517 41.8171 32.86 41.8171ZM41.5267 26.6504C40.335 26.6504 39.36 25.6754 39.36 24.4837C39.36 23.2921 40.335 22.3171 41.5267 22.3171C42.7184 22.3171 43.6934 23.2921 43.6934 24.4837C43.6934 25.6754 42.7184 26.6504 41.5267 26.6504ZM37.1934 7.15039H15.5267C14.335 7.15039 13.36 8.12539 13.36 9.31706V13.6504C13.36 14.8421 14.335 15.8171 15.5267 15.8171H37.1934C38.385 15.8171 39.36 14.8421 39.36 13.6504V9.31706C39.36 8.12539 38.385 7.15039 37.1934 7.15039Z" fill="currentColor"/>
</svg>
