<svg width="48" height="49" viewBox="0 0 48 49" fill="none" xmlns="http://www.w3.org/2000/svg">
<path d="M24.3593 48.2254C11.3271 48.2254 0.734375 37.6326 0.734375 24.6005C0.734375 11.5683 11.3271 0.975586 24.3593 0.975586C37.3914 0.975586 47.9842 11.5683 47.9842 24.6005C47.9842 37.6326 37.3914 48.2254 24.3593 48.2254ZM24.3593 4.27208C13.1512 4.27208 4.03087 13.3924 4.03087 24.6005C4.03087 35.8086 13.1512 44.9289 24.3593 44.9289C35.5674 44.9289 44.6877 35.8086 44.6877 24.6005C44.6877 13.3924 35.5674 4.27208 24.3593 4.27208Z" fill="currentColor"/>
<path d="M32.5127 33.2375C32.227 33.2375 31.9413 33.1716 31.6776 32.9958L24.8648 28.9301C23.1726 27.9192 21.9199 25.6996 21.9199 23.7436V14.7332C21.9199 13.8322 22.6671 13.085 23.5682 13.085C24.4692 13.085 25.2164 13.8322 25.2164 14.7332V23.7436C25.2164 24.5348 25.8757 25.6996 26.557 26.0951L33.3698 30.1608C34.1609 30.6223 34.4027 31.6332 33.9411 32.4244C33.6115 32.9518 33.0621 33.2375 32.5127 33.2375Z" fill="currentColor"/>
</svg>
