<svg width="40" height="40" viewBox="0 0 40 40" fill="none" xmlns="http://www.w3.org/2000/svg">
<mask id="mask0_1993_1561" style="mask-type:alpha" maskUnits="userSpaceOnUse" x="0" y="0" width="40" height="40">
<rect x="0.923828" y="0.320312" width="39.0644" height="39.0644" fill="#D9D9D9"/>
</mask>
<g mask="url(#mask0_1993_1561)">
<path d="M18.8288 27.9907H12.3181C10.0665 27.9907 8.14717 27.1972 6.56017 25.6102C4.97318 24.0232 4.17969 22.1039 4.17969 19.8523C4.17969 17.6007 4.97318 15.6813 6.56017 14.0944C8.14717 12.5074 10.0665 11.7139 12.3181 11.7139H18.8288V14.9692H12.3181C10.9617 14.9692 9.80876 15.444 8.85928 16.3935C7.90979 17.3429 7.43505 18.4959 7.43505 19.8523C7.43505 21.2087 7.90979 22.3616 8.85928 23.3111C9.80876 24.2606 10.9617 24.7353 12.3181 24.7353H18.8288V27.9907ZM13.9458 21.48V18.2246H26.9673V21.48H13.9458ZM22.0842 27.9907V24.7353H28.5949C29.9513 24.7353 31.1043 24.2606 32.0538 23.3111C33.0032 22.3616 33.478 21.2087 33.478 19.8523C33.478 18.4959 33.0032 17.3429 32.0538 16.3935C31.1043 15.444 29.9513 14.9692 28.5949 14.9692H22.0842V11.7139H28.5949C30.8466 11.7139 32.7659 12.5074 34.3529 14.0944C35.9399 15.6813 36.7333 17.6007 36.7333 19.8523C36.7333 22.1039 35.9399 24.0232 34.3529 25.6102C32.7659 27.1972 30.8466 27.9907 28.5949 27.9907H22.0842Z" fill="currentColor"/>
</g>
</svg>
