<svg width="373" height="102" viewBox="0 0 373 102" fill="none" xmlns="http://www.w3.org/2000/svg">
<path d="M0.333984 51.3096C0.333984 23.2663 22.6284 0.691406 50.6717 0.691406C78.715 0.691406 101.15 23.2663 101.15 51.3096C101.15 79.3529 78.715 101.647 50.6717 101.647C22.6284 101.647 0.333984 79.3529 0.333984 51.3096ZM18.5621 51.3096C18.5621 68.9769 33.0044 83.4192 50.6717 83.4192C68.339 83.4192 82.9215 68.9769 82.9215 51.3096C82.9215 33.6423 68.339 18.9196 50.6717 18.9196C33.0044 18.9196 18.5621 33.6423 18.5621 51.3096Z" fill="white"/>
<path d="M112.48 51.3096C112.48 23.2663 134.774 0.691406 162.818 0.691406C190.861 0.691406 213.296 23.2663 213.296 51.3096C213.296 79.3529 190.861 101.647 162.818 101.647C134.774 101.647 112.48 79.3529 112.48 51.3096ZM130.708 51.3096C130.708 68.9769 145.15 83.4192 162.818 83.4192C180.485 83.4192 195.067 68.9769 195.067 51.3096C195.067 33.6423 180.485 18.9196 162.818 18.9196C145.15 18.9196 130.708 33.6423 130.708 51.3096Z" fill="white"/>
<path d="M231.637 97.5811V4.75768C231.637 3.35552 232.758 2.09357 234.301 2.09357H267.252C284.498 2.09357 298.66 16.1152 298.66 33.0814C298.66 50.4683 284.498 64.6302 267.392 64.6302H249.865V97.5811C249.865 98.9832 248.603 100.245 247.201 100.245H234.301C232.758 100.245 231.637 98.9832 231.637 97.5811ZM249.865 47.5237H266.13C273.982 47.5237 280.572 41.214 280.572 32.9412C280.572 25.2293 273.982 19.3402 266.13 19.3402H249.865V47.5237Z" fill="white"/>
<path d="M309.568 90.7104C308.307 89.4485 307.605 88.7474 308.867 86.504L313.915 77.8105C315.037 75.8475 317.421 75.8475 318.683 76.829C319.384 77.2497 330.741 85.5224 339.855 85.5224C347.147 85.5224 352.615 80.7551 352.615 74.7258C352.615 67.5747 346.586 62.6671 334.807 57.8998C321.627 52.5715 308.447 44.1585 308.447 27.613C308.447 15.1337 317.701 0.691406 339.995 0.691406C354.298 0.691406 365.234 7.98267 368.039 10.0859C369.441 10.9272 369.862 13.3109 368.88 14.7131L363.552 22.7054C362.43 24.388 360.327 25.5097 358.644 24.388C357.523 23.6869 346.866 16.6761 339.154 16.6761C331.162 16.6761 326.815 22.0043 326.815 26.4913C326.815 33.0814 332.003 37.5684 343.361 42.1955C356.962 47.664 372.666 55.7965 372.666 73.8845C372.666 88.3268 360.187 101.647 340.416 101.647C322.749 101.647 312.373 93.3746 309.568 90.7104Z" fill="white"/>
</svg>
