<svg width="60" height="59" viewBox="0 0 60 59" fill="none" xmlns="http://www.w3.org/2000/svg">
<path d="M22.2715 15.3442C21.3965 15.3442 20.709 14.6477 20.709 13.8077V8.09212C20.709 7.25219 21.3965 6.55566 22.2715 6.55566C23.1465 6.55566 23.834 7.25219 23.834 8.09212V13.7873C23.834 14.6477 23.1465 15.3442 22.2715 15.3442Z" fill="currentColor"/>
<path d="M37.7285 15.3442C36.8535 15.3442 36.166 14.6477 36.166 13.8077V8.09212C36.166 7.23171 36.8743 6.55566 37.7285 6.55566C38.6035 6.55566 39.291 7.25219 39.291 8.09212V13.7873C39.291 14.6477 38.6035 15.3442 37.7285 15.3442Z" fill="currentColor"/>
<path d="M45.7715 11.6775C44.3965 10.6737 42.4173 11.6365 42.4173 13.3369V13.5418C42.4173 15.9386 40.6673 18.1511 38.2298 18.397C35.4173 18.6838 33.0423 16.5122 33.0423 13.8081V11.6775C33.0423 10.5508 32.1048 9.62891 30.959 9.62891H29.0423C27.8965 9.62891 26.959 10.5508 26.959 11.6775V13.8081C26.959 15.4265 26.1048 16.8605 24.8131 17.6595C24.6256 17.7824 24.4173 17.8848 24.209 17.9872C24.0215 18.0897 23.8131 18.1716 23.584 18.2331C23.334 18.315 23.0631 18.3765 22.7715 18.397C22.4381 18.4379 22.1048 18.4379 21.7715 18.397C21.4798 18.3765 21.209 18.315 20.959 18.2331C20.7506 18.1716 20.5423 18.0897 20.334 17.9872C20.1256 17.8848 19.9173 17.7824 19.7298 17.6595C18.4173 16.7581 17.584 15.2011 17.584 13.5418V13.3369C17.584 11.7595 15.8757 10.8171 14.5215 11.4931C14.5007 11.5136 14.4798 11.5136 14.459 11.5341C14.3757 11.5751 14.3132 11.6161 14.2298 11.6775C14.1673 11.739 14.084 11.7799 14.0215 11.8414C13.4382 12.2921 12.9173 12.8043 12.4798 13.3574C12.2507 13.6032 12.0632 13.8695 11.8965 14.1359C11.8757 14.1563 11.8548 14.1768 11.834 14.2178C11.6465 14.4841 11.4798 14.7914 11.334 15.0782C11.2923 15.1192 11.2715 15.1397 11.2715 15.1806C11.1465 15.4265 11.0215 15.6723 10.9382 15.9386C10.8757 16.0411 10.8548 16.123 10.8132 16.2254C10.6882 16.5327 10.6048 16.84 10.5215 17.1473C10.4382 17.4341 10.3757 17.7414 10.334 18.0487C10.2923 18.274 10.2715 18.4994 10.2507 18.7452C10.2298 19.032 10.209 19.3188 10.209 19.6056V37.5515C10.209 43.0622 14.7506 47.5282 20.3548 47.5282H39.6465C45.2506 47.5282 49.7923 43.0622 49.7923 37.5515V19.6056C49.7923 16.3484 48.209 13.5008 45.7715 11.6775ZM30.0006 35.7487H26.4798V39.3338C26.4798 40.1737 25.7715 40.8702 24.9173 40.8702C24.0423 40.8702 23.3548 40.1737 23.3548 39.3338V35.7487H19.584C18.7298 35.7487 18.0215 35.0522 18.0215 34.2122C18.0215 33.3723 18.7298 32.6758 19.584 32.6758H23.3548V29.0907C23.3548 28.2508 24.0423 27.5543 24.9173 27.5543C25.7715 27.5543 26.4798 28.2508 26.4798 29.0907V32.6758H30.0006C30.8548 32.6758 31.5631 33.3723 31.5631 34.2122C31.5631 35.0522 30.8548 35.7487 30.0006 35.7487Z" fill="currentColor"/>
</svg>
