<svg xmlns="http://www.w3.org/2000/svg" width="19" height="19" viewBox="0 0 19 19" fill="none">
<path d="M18.6871 17.1945L14.5147 13.0204C15.7657 11.3902 16.3498 9.34523 16.1484 7.30025C15.9471 5.25526 14.9753 3.36344 13.4303 2.00854C11.8854 0.653636 9.88281 -0.0628803 7.82894 0.00433497C5.77507 0.0715503 3.82367 0.917464 2.37059 2.37048C0.917507 3.82349 0.0715536 5.77481 0.00433517 7.82858C-0.0628832 9.88235 0.653667 11.8848 2.00863 13.4297C3.36359 14.9746 5.25551 15.9463 7.30058 16.1477C9.34566 16.349 11.3908 15.765 13.021 14.514L17.197 18.6907C17.2951 18.7887 17.4115 18.8665 17.5397 18.9196C17.6678 18.9727 17.8052 19 17.9438 19C18.0825 19 18.2199 18.9727 18.348 18.9196C18.4762 18.8665 18.5926 18.7887 18.6907 18.6907C18.7887 18.5926 18.8665 18.4762 18.9196 18.3481C18.9727 18.2199 19 18.0826 19 17.9439C19 17.8052 18.9727 17.6679 18.9196 17.5397C18.8665 17.4116 18.7887 17.2952 18.6907 17.1971L18.6871 17.1945ZM2.12637 8.10049C2.12637 6.9189 2.47677 5.76385 3.13326 4.78139C3.78974 3.79894 4.72283 3.03321 5.81453 2.58103C6.90622 2.12886 8.1075 2.01055 9.26643 2.24107C10.4254 2.47158 11.4899 3.04057 12.3255 3.87608C13.161 4.71159 13.73 5.7761 13.9606 6.93498C14.1911 8.09387 14.0728 9.29508 13.6206 10.3867C13.1684 11.4784 12.4026 12.4114 11.4201 13.0679C10.4376 13.7243 9.28251 14.0747 8.10087 14.0747C6.51683 14.0731 4.99814 13.4431 3.87806 12.3231C2.75798 11.2031 2.128 9.68445 2.12637 8.10049Z" fill="currentColor"/>
</svg>