<svg width="53" height="53" viewBox="0 0 53 53" fill="none" xmlns="http://www.w3.org/2000/svg">
<path d="M43.6922 24.4812H48.0256C48.0256 13.3662 39.6341 4.9834 28.5039 4.9834V9.31673C37.3049 9.31673 43.6922 15.6932 43.6922 24.4812Z" fill="currentColor"/>
<path d="M28.5267 17.9836C33.0832 17.9836 35.0267 19.9271 35.0267 24.4836H39.36C39.36 17.4961 35.5142 13.6503 28.5267 13.6503V17.9836ZM35.941 29.7768C35.5247 29.3984 34.9776 29.1965 34.4152 29.2139C33.8529 29.2313 33.3193 29.4665 32.9272 29.8699L27.7423 35.2021C26.4943 34.9638 23.9853 34.1816 21.4027 31.6054C18.82 29.0206 18.0378 26.5051 17.806 25.2658L23.1338 20.0788C23.5377 19.6869 23.7733 19.1532 23.7907 18.5907C23.8081 18.0282 23.6059 17.481 23.227 17.0649L15.2212 8.26176C14.8421 7.84436 14.3152 7.59118 13.7525 7.55599C13.1897 7.52079 12.6354 7.70635 12.2073 8.07326L7.50565 12.1054C7.13106 12.4814 6.90748 12.9817 6.87732 13.5116C6.84482 14.0533 6.22515 26.8843 16.1745 36.8379C24.8542 45.5154 35.7265 46.1503 38.7208 46.1503C39.1585 46.1503 39.4272 46.1373 39.4987 46.1329C40.0284 46.1033 40.5285 45.8787 40.9027 45.5024L44.9327 40.7986C45.2998 40.3707 45.4858 39.8166 45.451 39.2539C45.4162 38.6911 45.1634 38.1641 44.7463 37.7848L35.941 29.7768Z" fill="currentColor"/>
</svg>
