<svg width="53" height="53" viewBox="0 0 53 53" fill="none" xmlns="http://www.w3.org/2000/svg">
<path d="M26.3594 4.90137C21.6204 4.90696 17.077 6.79201 13.726 10.143C10.375 13.494 8.48998 18.0373 8.48439 22.7764C8.47872 26.6491 9.74374 30.4168 12.0854 33.5014C12.0854 33.5014 12.5729 34.1432 12.6525 34.2359L26.3594 50.4014L40.0728 34.2277C40.1443 34.1416 40.6334 33.5014 40.6334 33.5014L40.635 33.4965C42.9755 30.4132 44.2399 26.6473 44.2344 22.7764C44.2288 18.0373 42.3438 13.494 38.9928 10.143C35.6418 6.79201 31.0984 4.90696 26.3594 4.90137ZM26.3594 29.2764C25.0738 29.2764 23.8171 28.8951 22.7482 28.1809C21.6793 27.4667 20.8461 26.4515 20.3542 25.2638C19.8622 24.0761 19.7335 22.7692 19.9843 21.5083C20.2351 20.2474 20.8542 19.0892 21.7632 18.1802C22.6722 17.2711 23.8304 16.6521 25.0913 16.4013C26.3522 16.1505 27.6591 16.2792 28.8468 16.7711C30.0346 17.2631 31.0497 18.0962 31.7639 19.1652C32.4782 20.2341 32.8594 21.4908 32.8594 22.7764C32.8572 24.4996 32.1717 26.1517 30.9532 27.3702C29.7347 28.5887 28.0826 29.2742 26.3594 29.2764Z" fill="currentColor"/>
</svg>
