<svg xmlns="http://www.w3.org/2000/svg" width="19" height="20" viewBox="0 0 19 20" fill="none">
<path d="M10.724 10.7183L4.78646 16.6558C4.70361 16.7387 4.60526 16.8044 4.49702 16.8492C4.38877 16.8941 4.27276 16.9172 4.1556 16.9172C4.03844 16.9172 3.92242 16.8941 3.81418 16.8492C3.70594 16.8044 3.60758 16.7387 3.52474 16.6558C3.44189 16.573 3.37618 16.4746 3.33134 16.3664C3.2865 16.2582 3.26343 16.1421 3.26343 16.025C3.26343 15.9078 3.2865 15.7918 3.33134 15.6836C3.37618 15.5753 3.44189 15.477 3.52474 15.3941L8.83212 10.0882L3.52622 4.78084C3.35891 4.61353 3.26491 4.3866 3.26491 4.14998C3.26491 3.91336 3.35891 3.68644 3.52622 3.51912C3.69354 3.35181 3.92046 3.25781 4.15708 3.25781C4.3937 3.25781 4.62063 3.35181 4.78794 3.51912L10.7254 9.45662C10.8084 9.53946 10.8741 9.63786 10.919 9.74617C10.9638 9.85448 10.9868 9.97057 10.9867 10.0878C10.9865 10.205 10.9632 10.321 10.9182 10.4293C10.8731 10.5375 10.8071 10.6357 10.724 10.7183ZM16.6615 9.45662L10.724 3.51912C10.6411 3.43628 10.5428 3.37056 10.4345 3.32572C10.3263 3.28089 10.2103 3.25781 10.0931 3.25781C9.97594 3.25781 9.85992 3.28089 9.75168 3.32572C9.64344 3.37056 9.54508 3.43628 9.46224 3.51912C9.37939 3.60197 9.31368 3.70032 9.26884 3.80856C9.224 3.91681 9.20093 4.03282 9.20093 4.14998C9.20093 4.26714 9.224 4.38316 9.26884 4.4914C9.31368 4.59964 9.37939 4.698 9.46224 4.78084L14.7696 10.0882L9.4615 15.3956C9.29418 15.5629 9.20019 15.7898 9.20019 16.0265C9.20019 16.2631 9.29418 16.49 9.4615 16.6573C9.62881 16.8246 9.85574 16.9186 10.0924 16.9186C10.329 16.9186 10.5559 16.8246 10.7232 16.6573L16.6607 10.7198C16.7438 10.6371 16.8097 10.5389 16.8547 10.4306C16.8998 10.3224 16.923 10.2063 16.923 10.0891C16.9231 9.9719 16.9 9.85582 16.8551 9.74754C16.8103 9.63926 16.7444 9.5409 16.6615 9.45811V9.45662Z" fill="currentColor"/>
</svg>