<svg width="161" height="178" viewBox="0 0 161 178" fill="none" xmlns="http://www.w3.org/2000/svg">
<g clip-path="url(#clip0_1803_841)">
<path d="M59.1301 100.249C64.9426 94.4049 64.9426 84.9291 59.1301 79.0845C53.3176 73.24 43.8936 73.24 38.0811 79.0845C32.2686 84.9291 32.2686 94.4049 38.0811 100.249C43.8936 106.094 53.3176 106.094 59.1301 100.249Z" fill="white"/>
<path d="M100.171 147.034C106.732 141.565 115.735 140.256 123.926 139.556C129.906 139.045 133.674 135.561 132.986 129.219C132.11 121.114 126.523 113.701 122.001 107.243C114.743 96.8815 104.799 88.0518 92.9295 83.4722C89.0139 81.9567 81.5515 79.881 75.1211 80.0128C68.8054 80.1364 63.481 82.3932 63.481 89.3944V89.6662V129.919C63.481 134.968 67.5521 139.053 72.5654 139.053C77.5786 139.053 81.6497 134.959 81.6497 129.919V112.589C86.8022 116.946 92.9786 122.555 96.8532 127.439C86.7039 132.686 74.5887 143.633 69.2478 166.498C68.101 171.407 71.1318 176.332 76.014 177.485C76.7103 177.65 77.4147 177.732 78.1028 177.732C82.2232 177.732 85.9585 174.891 86.9415 170.682C89.0303 161.786 93.0523 152.973 100.171 147.034Z" fill="white"/>
<path d="M138.228 169.784H130.774L130.872 155.946C131.855 155.683 132.847 155.411 133.862 155.106C144.298 151.984 154.996 139.168 146.666 95.8435C146.592 95.4399 146.526 95.1351 146.494 94.9375C146.158 91.9723 143.651 89.666 140.604 89.666C137.327 89.666 134.673 92.3347 134.673 95.6293C134.673 96.2965 134.755 96.7166 135.017 98.1086C139.973 123.898 138.237 141.367 130.479 143.682C126.129 144.983 122.066 145.832 118.135 146.655C105.421 149.316 92.2739 152.067 91.7333 170.945C91.6431 174.232 94.2153 176.974 97.4919 177.073C97.5492 177.073 97.6066 177.073 97.6639 177.073C100.859 177.073 103.496 174.512 103.586 171.283C103.832 162.56 107.043 161.193 118.995 158.648L118.913 169.784H112.147C109.968 169.784 108.198 171.563 108.198 173.754C108.198 175.945 109.968 177.724 112.147 177.724H138.22C140.399 177.724 142.168 175.945 142.168 173.754C142.168 171.563 140.407 169.784 138.228 169.784Z" fill="white"/>
<path d="M34.2945 109.957C34.2945 109.809 34.1716 109.686 34.0242 109.686H23.7848V101.902H25.546C25.6606 101.902 25.7508 101.811 25.7508 101.696V54.9696C25.7508 54.8543 25.6606 54.7637 25.546 54.7637H20.1723C20.0576 54.7637 19.9675 54.8543 19.9675 54.9696V101.704C19.9675 101.82 20.0576 101.91 20.1723 101.91H20.6638V109.694V112.527H0.840332V121.456H8.36961L8.36961 177.518H18.5575V121.448H56.5263V112.519H34.2945V109.957Z" fill="white"/>
</g>
<path fill-rule="evenodd" clip-rule="evenodd" d="M160.159 34.2874C160.159 53.1833 144.841 68.5015 125.945 68.5015C118.274 68.5015 111.193 65.9771 105.487 61.7137L94.2137 65.4714L94.2127 65.4724L94.2129 65.4716L94.2121 65.4719L94.2132 65.4709L98.0176 54.0574C94.0583 48.4745 91.731 41.6527 91.731 34.2874C91.731 15.3914 107.049 0.0732422 125.945 0.0732422C144.841 0.0732422 160.159 15.3914 160.159 34.2874ZM123.951 37.5342C124.008 37.9898 124.521 38.4455 125.034 38.4455H126.856C127.369 38.4455 127.881 37.9898 127.938 37.5342L130.16 21.5296V15.1505C130.16 14.581 129.647 14.0684 129.077 14.0684H122.812C122.243 14.0684 121.73 14.581 121.73 15.1505V21.6435L123.951 37.5342ZM125.888 45.1093C123.382 45.1093 121.274 47.2736 121.274 49.8366C121.274 52.3996 123.382 54.507 125.888 54.507C128.508 54.507 130.615 52.3996 130.615 49.8366C130.615 47.2736 128.508 45.1093 125.888 45.1093Z" fill="white"/>
<defs>
<clipPath id="clip0_1803_841">
<rect width="148.799" height="128.475" fill="white" transform="translate(0.840332 49.2568)"/>
</clipPath>
</defs>
</svg>
