<svg width="48" height="48" viewBox="0 0 48 48" fill="none" xmlns="http://www.w3.org/2000/svg">
<path d="M23.7471 17.9506C20.5617 17.9506 17.9924 20.5204 17.9924 23.7065C17.9924 26.8925 20.5617 29.4624 23.7471 29.4624C26.9324 29.4624 29.5017 26.8925 29.5017 23.7065C29.5017 20.5204 26.9324 17.9506 23.7471 17.9506ZM23.7471 27.4486C21.6886 27.4486 20.0058 25.7704 20.0058 23.7065C20.0058 21.6426 21.6836 19.9644 23.7471 19.9644C25.8105 19.9644 27.4883 21.6426 27.4883 23.7065C27.4883 25.7704 25.8055 27.4486 23.7471 27.4486ZM31.0793 17.7151C31.0793 18.4615 30.4783 19.0577 29.7371 19.0577C28.9908 19.0577 28.3948 18.4565 28.3948 17.7151C28.3948 16.9737 28.9959 16.3726 29.7371 16.3726C30.4783 16.3726 31.0793 16.9737 31.0793 17.7151ZM34.8907 19.0777C34.8056 17.2793 34.3949 15.6863 33.0777 14.3738C31.7655 13.0613 30.1728 12.6505 28.3748 12.5603C26.5217 12.4551 20.9674 12.4551 19.1143 12.5603C17.3213 12.6455 15.7287 13.0563 14.4114 14.3688C13.0942 15.6813 12.6886 17.2743 12.5984 19.0727C12.4932 20.9262 12.4932 26.4817 12.5984 28.3353C12.6836 30.1337 13.0942 31.7267 14.4114 33.0392C15.7287 34.3517 17.3163 34.7624 19.1143 34.8526C20.9674 34.9578 26.5217 34.9578 28.3748 34.8526C30.1728 34.7675 31.7655 34.3567 33.0777 33.0392C34.3899 31.7267 34.8006 30.1337 34.8907 28.3353C34.9959 26.4817 34.9959 20.9312 34.8907 19.0777ZM32.4967 30.324C32.1061 31.3059 31.3498 32.0623 30.3631 32.4581C28.8857 33.0442 25.3798 32.9089 23.7471 32.9089C22.1143 32.9089 18.6035 33.0392 17.131 32.4581C16.1494 32.0673 15.3931 31.3109 14.9974 30.324C14.4114 28.8462 14.5467 25.3396 14.5467 23.7065C14.5467 22.0734 14.4165 18.5617 14.9974 17.0889C15.3881 16.1071 16.1443 15.3506 17.131 14.9549C18.6085 14.3688 22.1143 14.504 23.7471 14.504C25.3798 14.504 28.8907 14.3738 30.3631 14.9549C31.3448 15.3456 32.1011 16.1021 32.4967 17.0889C33.0827 18.5667 32.9475 22.0734 32.9475 23.7065C32.9475 25.3396 33.0827 28.8512 32.4967 30.324Z" fill="currentColor"/>
<circle cx="23.7449" cy="23.7058" r="22.8855" stroke="currentColor"/>
</svg>
