<svg width="40" height="40" viewBox="0 0 40 40" fill="currentColor" xmlns="http://www.w3.org/2000/svg">
<path d="M20.266 11.8398C15.8318 11.8398 12.2553 15.4172 12.2553 19.8523C12.2553 24.2874 15.8318 27.8648 20.266 27.8648C24.7001 27.8648 28.2767 24.2874 28.2767 19.8523C28.2767 15.4172 24.7001 11.8398 20.266 11.8398ZM20.266 25.0615C17.4005 25.0615 15.058 22.7254 15.058 19.8523C15.058 16.9793 17.3935 14.6432 20.266 14.6432C23.1384 14.6432 25.474 16.9793 25.474 19.8523C25.474 22.7254 23.1314 25.0615 20.266 25.0615ZM30.4728 11.5121C30.4728 12.5511 29.6362 13.381 28.6043 13.381C27.5655 13.381 26.7359 12.5441 26.7359 11.5121C26.7359 10.48 27.5725 9.64319 28.6043 9.64319C29.6362 9.64319 30.4728 10.48 30.4728 11.5121ZM35.7784 13.4089C35.6599 10.9054 35.0882 8.68783 33.2546 6.86078C31.428 5.03374 29.2109 4.46192 26.708 4.33639C24.1284 4.18995 16.3966 4.18995 13.817 4.33639C11.321 4.45494 9.10396 5.02677 7.27035 6.85381C5.43674 8.68085 4.87202 10.8984 4.74653 13.4019C4.60012 15.9821 4.60012 23.7156 4.74653 26.2958C4.86505 28.7993 5.43674 31.0168 7.27035 32.8439C9.10396 34.6709 11.3141 35.2427 13.817 35.3682C16.3966 35.5147 24.1284 35.5147 26.708 35.3682C29.2109 35.2497 31.428 34.6779 33.2546 32.8439C35.0812 31.0168 35.6529 28.7993 35.7784 26.2958C35.9248 23.7156 35.9248 15.989 35.7784 13.4089ZM32.4459 29.0642C31.9021 30.431 30.8493 31.484 29.4758 32.0349C27.4191 32.8508 22.5388 32.6625 20.266 32.6625C17.9931 32.6625 13.1058 32.8439 11.0561 32.0349C9.6896 31.491 8.63684 30.438 8.08606 29.0642C7.27035 27.0071 7.45859 22.1257 7.45859 19.8523C7.45859 17.579 7.27732 12.6906 8.08606 10.6404C8.62987 9.2736 9.68263 8.22061 11.0561 7.6697C13.1128 6.85381 17.9931 7.04209 20.266 7.04209C22.5388 7.04209 27.4261 6.86078 29.4758 7.6697C30.8423 8.21363 31.8951 9.26662 32.4459 10.6404C33.2616 12.6976 33.0733 17.579 33.0733 19.8523C33.0733 22.1257 33.2616 27.0141 32.4459 29.0642Z" fill="currentColor"/>
</svg>
