<svg width="61" height="61" viewBox="0 0 61 61" fill="none" xmlns="http://www.w3.org/2000/svg">
<path d="M28.7471 47.7052C28.6625 48.0718 28.4671 48.3973 28.1922 48.6298C27.9172 48.8624 27.5784 48.9888 27.2295 48.9888C27.0977 48.9895 26.9663 48.9724 26.8384 48.938L20.5804 47.2435C20.4062 47.1961 20.2408 47.1166 20.0915 47.0084L15.398 43.6194C15.0529 43.37 14.8133 42.9823 14.7321 42.5416C14.6508 42.1008 14.7346 41.6432 14.9649 41.2694C15.1951 40.8955 15.5531 40.6361 15.96 40.5481C16.3669 40.4601 16.7894 40.5508 17.1346 40.8002L21.6012 44.0261L27.5972 45.6507C27.7975 45.7033 27.9862 45.7983 28.1526 45.9301C28.3189 46.062 28.4596 46.2282 28.5664 46.4191C28.6733 46.61 28.7442 46.8219 28.7752 47.0426C28.8062 47.2634 28.7967 47.4885 28.7471 47.7052ZM54.6961 27.274C54.5677 27.6963 54.3634 28.0869 54.0949 28.4232C53.8263 28.7594 53.4989 29.0348 53.1316 29.2332L48.5007 31.7411L45.5517 34.9373L37.7292 43.4097C37.538 43.6166 37.3006 43.7663 37.0402 43.8442C36.7797 43.9222 36.505 43.9257 36.2429 43.8545L23.727 40.4656C23.5367 40.4138 23.3569 40.324 23.197 40.2008L12.3395 31.8046L7.59122 29.2332C6.84913 28.8314 6.28475 28.1269 6.02218 27.2745C5.7596 26.4221 5.82033 25.4917 6.191 24.6878L11.0507 14.1629C11.4217 13.3592 12.0722 12.7479 12.8592 12.4635C13.6462 12.1791 14.5052 12.2449 15.2474 12.6463L19.5615 14.9762L29.9263 11.7694C30.2075 11.6823 30.5056 11.6823 30.7868 11.7694L41.1515 14.9762L45.4656 12.6463C46.2078 12.2449 47.0669 12.1791 47.8539 12.4635C48.6409 12.7479 49.2914 13.3592 49.6623 14.1629L54.5221 24.6878C54.7074 25.085 54.8182 25.5181 54.8481 25.962C54.878 26.4059 54.8263 26.8518 54.6961 27.274ZM42.0922 33.8782L36.6732 29.1782C32.8519 32.5671 28 33.0141 23.9793 30.2372C23.5838 29.9647 23.2498 29.5995 23.0021 29.1684C22.7545 28.7374 22.5994 28.2516 22.5483 27.7469C22.4972 27.2422 22.5515 26.7316 22.7071 26.2527C22.8627 25.7738 23.1157 25.3389 23.4473 24.9801C23.4521 24.9739 23.4573 24.9682 23.463 24.9631L32.2359 15.7472L30.3585 15.1669L20.4983 18.2191L15.1458 29.8115L24.7674 37.2566L36.1373 40.3342L42.0922 33.8782ZM45.6592 30.0148L40.3438 18.4881H34.1211L25.665 27.3841C28.1408 29.0977 32.0227 29.57 35.5057 25.768C35.7777 25.471 36.1415 25.2936 36.5271 25.2697C36.9127 25.2458 37.2928 25.3773 37.5943 25.6388L44.3235 31.4784L45.6592 30.0148Z" fill="currentColor"/>
</svg>
