<svg width="61" height="61" viewBox="0 0 61 61" fill="none" xmlns="http://www.w3.org/2000/svg">
<path d="M51.9847 46.8079H48.9401V23.3109C48.9401 22.4206 48.6138 21.5668 48.033 20.9373C47.4523 20.3078 46.6646 19.9542 45.8432 19.9542H37.3268C37.1215 19.9542 36.9246 20.0426 36.7794 20.1999C36.6342 20.3573 36.5526 20.5708 36.5526 20.7933V46.8079H33.4557V9.97003C33.4609 9.44718 33.3562 8.92992 33.1496 8.45741C32.943 7.98489 32.64 7.56951 32.2634 7.2427C31.7501 6.80892 31.1238 6.56147 30.4733 6.53548C29.8229 6.5095 29.1815 6.7063 28.6401 7.09794L13.1557 18.2758C12.731 18.583 12.3828 18.9992 12.1424 19.4875C11.902 19.9758 11.7766 20.521 11.7776 21.0745V46.8079H8.733C8.33286 46.8015 7.94532 46.9595 7.64835 47.2503C7.35138 47.541 7.167 47.9429 7.13231 48.375C7.11824 48.6046 7.14788 48.8349 7.21938 49.0515C7.29087 49.2681 7.4027 49.4665 7.54791 49.6344C7.69312 49.8022 7.86861 49.9358 8.06349 50.0271C8.25837 50.1183 8.46847 50.1651 8.68074 50.1646H52.037C52.2492 50.1651 52.4593 50.1183 52.6542 50.0271C52.8491 49.9358 53.0246 49.8022 53.1698 49.6344C53.315 49.4665 53.4268 49.2681 53.4983 49.0515C53.5698 48.8349 53.5995 48.6046 53.5854 48.375C53.5507 47.9429 53.3663 47.541 53.0694 47.2503C52.7724 46.9595 52.3848 46.8015 51.9847 46.8079ZM20.294 41.7728C20.2945 42.0029 20.2513 42.2306 20.1671 42.4418C20.083 42.6531 19.9597 42.8433 19.8048 43.0007C19.65 43.1581 19.467 43.2793 19.2671 43.3568C19.0672 43.4343 18.8548 43.4664 18.643 43.4511C18.244 43.4135 17.8729 43.2134 17.6046 42.891C17.3364 42.5687 17.1907 42.1481 17.1971 41.714V38.4727C17.1917 38.0391 17.3377 37.6194 17.6058 37.2976C17.874 36.9758 18.2445 36.7758 18.643 36.7377C18.8548 36.7225 19.0672 36.7546 19.2671 36.8321C19.467 36.9096 19.65 37.0308 19.8048 37.1882C19.9597 37.3456 20.083 37.5358 20.1671 37.747C20.2513 37.9583 20.2945 38.186 20.294 38.4161V41.7728ZM20.294 30.0243C20.2945 30.2544 20.2513 30.4821 20.1671 30.6933C20.083 30.9046 19.9597 31.0948 19.8048 31.2522C19.65 31.4096 19.467 31.5308 19.2671 31.6083C19.0672 31.6858 18.8548 31.7179 18.643 31.7026C18.2442 31.6645 17.8734 31.4643 17.6052 31.142C17.337 30.8198 17.1912 30.3995 17.1971 29.9655V26.7242C17.1917 26.2906 17.3377 25.8709 17.6058 25.5491C17.874 25.2273 18.2445 25.0273 18.643 24.9892C18.8548 24.974 19.0672 25.0061 19.2671 25.0836C19.467 25.1611 19.65 25.2823 19.8048 25.4397C19.9597 25.5971 20.083 25.7873 20.1671 25.9985C20.2513 26.2098 20.2945 26.4375 20.294 26.6676V30.0243ZM28.0362 41.7728C28.0367 42.0029 27.9935 42.2306 27.9093 42.4418C27.8252 42.6531 27.7019 42.8433 27.547 43.0007C27.3922 43.1581 27.2092 43.2793 27.0093 43.3568C26.8094 43.4343 26.597 43.4664 26.3852 43.4511C25.9868 43.4136 25.6164 43.214 25.3482 42.8926C25.08 42.5711 24.9339 42.1516 24.9393 41.7182V38.4727C24.9344 38.0395 25.0806 37.6202 25.3487 37.2989C25.6168 36.9776 25.987 36.7779 26.3852 36.7398C26.597 36.7246 26.8094 36.7567 27.0093 36.8342C27.2092 36.9117 27.3922 37.0329 27.547 37.1903C27.7019 37.3477 27.8252 37.5379 27.9093 37.7491C27.9935 37.9604 28.0367 38.1881 28.0362 38.4182V41.7728ZM28.0362 30.0243C28.0367 30.2544 27.9935 30.4821 27.9093 30.6933C27.8252 30.9046 27.7019 31.0948 27.547 31.2522C27.3922 31.4096 27.2092 31.5308 27.0093 31.6083C26.8094 31.6858 26.597 31.7179 26.3852 31.7026C25.987 31.6646 25.6168 31.4649 25.3487 31.1436C25.0806 30.8222 24.9344 30.403 24.9393 29.9697V26.7242C24.9344 26.291 25.0806 25.8717 25.3487 25.5504C25.6168 25.2291 25.987 25.0294 26.3852 24.9913C26.597 24.9761 26.8094 25.0082 27.0093 25.0857C27.2092 25.1632 27.3922 25.2844 27.547 25.4418C27.7019 25.5992 27.8252 25.7894 27.9093 26.0006C27.9935 26.2119 28.0367 26.4396 28.0362 26.6697V30.0243Z" fill="currentColor"/>
</svg>
