<svg width="61" height="61" viewBox="0 0 61 61" fill="none" xmlns="http://www.w3.org/2000/svg">
<g clip-path="url(#clip0_1993_1460)">
<path d="M51.3168 42.3681C52.4561 40.0502 53.0239 37.4929 52.9726 34.9103C52.9214 32.3277 52.2526 29.795 51.0223 27.5243C49.792 25.2535 48.036 23.3109 45.9013 21.8591C43.7666 20.4072 41.3154 19.4884 38.753 19.1796C37.9032 17.1969 36.6654 15.4044 35.1127 13.9079C33.56 12.4113 31.7238 11.241 29.7121 10.4657C27.7005 9.69041 25.5542 9.32593 23.3996 9.39373C21.245 9.46152 19.1258 9.96021 17.1668 10.8604C15.2078 11.7606 13.4486 13.0442 11.9929 14.6354C10.5372 16.2266 9.41443 18.0933 8.69073 20.1255C7.96703 22.1577 7.65704 24.3144 7.77902 26.4683C7.90101 28.6223 8.45251 30.7301 9.40102 32.6675L7.85426 38.0877C7.71624 38.5726 7.71019 39.0856 7.83675 39.5736C7.96331 40.0617 8.21787 40.507 8.57409 40.8635C8.93032 41.22 9.37526 41.4748 9.86288 41.6015C10.3505 41.7281 10.8631 41.7221 11.3476 41.5839L16.7632 40.0359C18.3974 40.8389 20.1553 41.3602 21.9628 41.5779C22.8244 43.5982 24.0884 45.4216 25.6775 46.9368C27.2666 48.4521 29.1476 49.6273 31.2056 50.3908C33.2636 51.1542 35.4554 51.49 37.6474 51.3775C39.8393 51.265 41.9854 50.7066 43.9546 49.7365L49.3702 51.2845C49.8547 51.4227 50.3673 51.4287 50.8549 51.3021C51.3426 51.1754 51.7875 50.9206 52.1437 50.5641C52.5 50.2076 52.7545 49.7623 52.8811 49.2742C53.0076 48.7862 53.0016 48.2732 52.8636 47.7883L51.3168 42.3681ZM48.0335 42.6389L49.558 47.9762L44.2252 46.4504C43.8189 46.336 43.384 46.3854 43.0136 46.5878C40.0358 48.2092 36.541 48.5959 33.2812 47.6646C30.0215 46.7334 27.2573 44.5585 25.5834 41.6082C27.7954 41.3776 29.9359 40.692 31.8706 39.5944C33.8054 38.4967 35.4926 37.0108 36.8264 35.2297C38.1603 33.4486 39.1119 31.4109 39.6217 29.2443C40.1315 27.0777 40.1884 24.8291 39.7889 22.6395C41.7246 23.096 43.5289 23.9936 45.0613 25.2622C46.5937 26.5308 47.8129 28.1363 48.624 29.9536C49.4351 31.771 49.8162 33.7511 49.7376 35.74C49.659 37.7288 49.1228 39.6727 48.1708 41.4202C47.9669 41.7926 47.9176 42.2304 48.0335 42.6389Z" fill="currentColor"/>
</g>
<defs>
<clipPath id="clip0_1993_1460">
<rect width="60" height="60.0505" fill="white" transform="translate(0.359375 0.320312)"/>
</clipPath>
</defs>
</svg>
