<svg width="61" height="61" viewBox="0 0 61 61" fill="none" xmlns="http://www.w3.org/2000/svg">
<g clip-path="url(#clip0_1993_1450)">
<path d="M49.2353 19.8116L42.9022 15.845C40.4132 14.2861 37.1061 15.4027 35.5045 17.8894C35.3559 18.1202 35.442 18.4381 35.676 18.5847L43.1686 23.2775C43.8178 23.684 44.0527 24.5912 43.6868 25.2787C43.321 25.9661 42.4792 26.199 41.8301 25.7925L34.3375 21.0997C34.1034 20.9531 33.8086 21.0319 33.6788 21.2757L31.9178 24.5846C31.7881 24.8283 31.8726 25.1448 32.1066 25.2914L36.1319 27.8124C36.781 28.219 37.0159 29.1262 36.6501 29.8137C36.2842 30.5011 35.4425 30.734 34.7934 30.3274L30.7681 27.8064C30.5341 27.6598 30.2392 27.7386 30.1095 27.9823L28.3907 31.2119C28.2619 31.4539 28.3442 31.768 28.5752 31.9159L36.0299 36.6908C36.6949 37.1073 36.914 38.0046 36.5392 38.7088C36.1575 39.3863 35.3405 39.6124 34.6914 39.2058C34.6756 39.1959 34.6756 39.1959 34.6756 39.1959L27.2453 34.4364C27.0109 34.2863 26.713 34.3642 26.5823 34.6097L24.7791 37.9979C24.6493 38.2417 24.7339 38.5581 24.9679 38.7047L30.7189 42.3067C31.3839 42.7231 31.603 43.6205 31.2371 44.3079C30.8713 44.9953 30.0454 45.2381 29.3804 44.8217L23.6294 41.2197C23.3954 41.0731 23.0985 41.1512 22.9886 41.4063C21.8042 44.1542 22.5664 47.8194 25.0554 49.3784L31.3885 53.3449C34.0009 54.9811 37.334 54.0731 38.8153 51.2898L51.3081 27.8165C52.7893 25.0332 51.8477 21.4478 49.2353 19.8116Z" fill="currentColor"/>
<path d="M31.0592 14.8621L30.1623 16.5472C30.0326 16.791 29.7377 16.8698 29.5037 16.7232L21.3039 11.5876C21.0699 11.441 20.9853 11.1245 21.115 10.8808L22.0119 9.19565C23.4222 6.54569 26.6161 5.64532 29.1114 7.20815C31.5913 8.7614 32.4695 12.2122 31.0592 14.8621Z" fill="currentColor"/>
<path d="M10.3394 31.1263C9.9401 31.8766 9.61865 33.2093 9.64884 34.073L9.68195 37.1173C9.73415 40.6626 12.0916 42.1392 14.9327 40.406L17.3949 38.9245C18.0842 38.5114 18.9874 37.5431 19.3867 36.7928L28.1678 20.2934C28.2976 20.0496 28.213 19.7332 27.979 19.5866L19.7792 14.4509C19.5452 14.3044 19.2503 14.3832 19.1206 14.6269L10.3394 31.1263Z" fill="currentColor"/>
</g>
<defs>
<clipPath id="clip0_1993_1450">
<rect width="60" height="60.0505" fill="white" transform="translate(0.359375 0.320312)"/>
</clipPath>
</defs>
</svg>
