<svg width="39" height="164" viewBox="0 0 39 164" fill="none" xmlns="http://www.w3.org/2000/svg">
<path d="M4.66648 28.7596L4.66648 16.4796H1.18648C0.966484 16.4796 0.806484 16.2996 0.806484 16.0996L0.806484 15.5196C0.806484 15.3196 0.966484 15.1396 1.18648 15.1396L9.66649 15.1396C9.88648 15.1396 10.0465 15.3196 10.0465 15.5196V16.0996C10.0465 16.2996 9.88648 16.4796 9.66649 16.4796H6.18648L6.18648 28.7596C6.18648 28.9596 6.00648 29.1396 5.80648 29.1396H5.04648C4.84648 29.1396 4.66648 28.9596 4.66648 28.7596ZM10.9829 22.1596C10.9829 18.1596 14.1629 14.9396 18.1629 14.9396C22.1629 14.9396 25.3629 18.1596 25.3629 22.1596C25.3629 26.1596 22.1629 29.3396 18.1629 29.3396C14.1629 29.3396 10.9829 26.1596 10.9829 22.1596ZM12.3829 22.1596C12.3829 25.3396 14.9829 27.9396 18.1629 27.9396C21.3429 27.9396 23.9629 25.3396 23.9629 22.1596C23.9629 18.9796 21.3429 16.3396 18.1629 16.3396C14.9829 16.3396 12.3829 18.9796 12.3829 22.1596ZM28.4287 28.7596L28.4287 15.5196C28.4287 15.3196 28.5887 15.1396 28.8087 15.1396L33.2287 15.1396C35.6887 15.1396 37.7087 17.1396 37.7087 19.5596C37.7087 22.0396 35.6887 24.0596 33.2487 24.0596H29.9487V28.7596C29.9487 28.9596 29.7687 29.1396 29.5687 29.1396H28.8087C28.5887 29.1396 28.4287 28.9596 28.4287 28.7596ZM29.9487 22.5796H33.1287C34.7687 22.5796 36.1687 21.2396 36.1687 19.5196C36.1687 17.8996 34.7687 16.6596 33.1287 16.6596H29.9487L29.9487 22.5796Z" fill="currentColor"/>
<path d="M18.1465 0.139648L22.0436 7.63965H14.2494L18.1465 0.139648Z" fill="currentColor"/>
<line x1="18.6465" y1="37.1396" x2="18.6465" y2="163.14" stroke="currentColor" stroke-width="2"/>
</svg>
