<svg width="35" height="100" viewBox="0 0 35 100" fill="none" xmlns="http://www.w3.org/2000/svg">
<path d="M5.89178 26.8356L5.89178 17.0116H3.10778C2.93178 17.0116 2.80378 16.8676 2.80378 16.7076V16.2436C2.80378 16.0836 2.93178 15.9396 3.10778 15.9396H9.89178C10.0678 15.9396 10.1958 16.0836 10.1958 16.2436V16.7076C10.1958 16.8676 10.0678 17.0116 9.89178 17.0116H7.10778L7.10778 26.8356C7.10778 26.9956 6.96378 27.1396 6.80378 27.1396H6.19578C6.03578 27.1396 5.89178 26.9956 5.89178 26.8356ZM10.9449 21.5556C10.9449 18.3556 13.4889 15.7796 16.6889 15.7796C19.8889 15.7796 22.4489 18.3556 22.4489 21.5556C22.4489 24.7556 19.8889 27.2996 16.6889 27.2996C13.4889 27.2996 10.9449 24.7556 10.9449 21.5556ZM12.0649 21.5556C12.0649 24.0996 14.1449 26.1796 16.6889 26.1796C19.2329 26.1796 21.3289 24.0996 21.3289 21.5556C21.3289 19.0116 19.2329 16.8996 16.6889 16.8996C14.1449 16.8996 12.0649 19.0116 12.0649 21.5556ZM24.9015 26.8356L24.9015 16.2436C24.9015 16.0836 25.0295 15.9396 25.2055 15.9396H28.7415C30.7095 15.9396 32.3255 17.5396 32.3255 19.4756C32.3255 21.4596 30.7095 23.0756 28.7575 23.0756H26.1175V26.8356C26.1175 26.9956 25.9735 27.1396 25.8135 27.1396H25.2055C25.0295 27.1396 24.9015 26.9956 24.9015 26.8356ZM26.1175 21.8916H28.6615C29.9735 21.8916 31.0935 20.8196 31.0935 19.4436C31.0935 18.1476 29.9735 17.1556 28.6615 17.1556H26.1175L26.1175 21.8916Z" fill="currentColor"/>
<path d="M17.1758 1.13965L20.2069 7.13965H14.1447L17.1758 1.13965Z" fill="currentColor"/>
<line x1="17.4258" y1="37.1396" x2="17.4258" y2="99.1396" stroke="currentColor" stroke-width="1.5"/>
</svg>
