<svg width="40" height="40" viewBox="0 0 40 40" fill="none" xmlns="http://www.w3.org/2000/svg">
<g clip-path="url(#clip0_1993_1560)">
<path d="M35.9082 11.8963C35.933 12.2433 35.933 12.5904 35.933 12.9374C35.933 23.5214 27.8773 35.7166 13.1537 35.7166C8.6177 35.7166 4.40393 34.4029 0.859375 32.1226C1.50386 32.1969 2.12347 32.2217 2.79276 32.2217C6.53554 32.2217 9.98099 30.9576 12.7324 28.8011C9.21259 28.7267 6.26293 26.4215 5.24664 23.2488C5.74242 23.3231 6.23813 23.3727 6.75871 23.3727C7.47751 23.3727 8.19638 23.2735 8.86559 23.1001C5.19712 22.3564 2.44568 19.1341 2.44568 15.2426V15.1434C3.51148 15.7383 4.75094 16.1101 6.06455 16.1596C3.90808 14.722 2.49527 12.2681 2.49527 9.49192C2.49527 8.00473 2.89179 6.64144 3.58587 5.45165C7.52703 10.3099 13.4512 13.4826 20.094 13.8297C19.9701 13.2348 19.8957 12.6152 19.8957 11.9955C19.8957 7.58334 23.4651 3.98926 27.9019 3.98926C30.2071 3.98926 32.2892 4.95595 33.7517 6.51753C35.5611 6.17053 37.2962 5.50125 38.833 4.58415C38.238 6.44322 36.9739 8.0048 35.3133 8.99622C36.9244 8.82279 38.486 8.37653 39.9236 7.75691C38.8332 9.34322 37.4698 10.756 35.9082 11.8963Z" fill="currentColor"/>
</g>
<defs>
<clipPath id="clip0_1993_1560">
<rect width="39.0644" height="39.0644" fill="white" transform="translate(0.859375 0.320312)"/>
</clipPath>
</defs>
</svg>
